<svg xmlns="http://www.w3.org/2000/svg" xmlns:xlink="http://www.w3.org/1999/xlink" viewBox="0 0 1200 1500" width="1200" height="1500" preserveAspectRatio="xMidYMid meet" style="width: 100%; height: 100%; transform: translate3d(0px, 0px, 0px); content-visibility: visible;"><defs><clipPath id="__lottie_element_4"><rect width="1200" height="1500" x="0" y="0"></rect></clipPath><linearGradient id="__lottie_element_17" spreadMethod="pad" gradientUnits="userSpaceOnUse" x1="-420.5119934082031" y1="-45.85499954223633" x2="430.7460021972656" y2="36.02299880981445"><stop offset="0%" stop-color="rgb(221,195,252)"></stop><stop offset="50%" stop-color="rgb(134,122,235)"></stop><stop offset="100%" stop-color="rgb(48,49,217)"></stop></linearGradient><linearGradient id="__lottie_element_21" spreadMethod="pad" gradientUnits="userSpaceOnUse" x1="-420.5119934082031" y1="-45.85499954223633" x2="430.7460021972656" y2="36.02299880981445"><stop offset="0%" stop-color="rgb(221,195,252)"></stop><stop offset="50%" stop-color="rgb(134,122,235)"></stop><stop offset="100%" stop-color="rgb(48,49,217)"></stop></linearGradient><linearGradient id="__lottie_element_32" spreadMethod="pad" gradientUnits="userSpaceOnUse" x1="3.315000057220459" y1="9.819999694824219" x2="-20.834999084472656" y2="-22.900999069213867"><stop offset="0%" stop-color="rgb(255,116,94)"></stop><stop offset="50%" stop-color="rgb(255,155,104)"></stop><stop offset="100%" stop-color="rgb(255,194,114)"></stop></linearGradient><g id="__lottie_element_33"><g style="display: none;" transform="matrix(0.9963300228118896,0,0,0.9963300228118896,600.2921142578125,749.5527954101562)" opacity="1"><g opacity="1" transform="matrix(1,0,0,1,0.5529999732971191,93.75800323486328)"><path fill="rgb(255,255,255)" fill-opacity="1" d=" M151.17799377441406,-184.781005859375 C151.17799377441406,-184.781005859375 141.17799377441406,94.78099822998047 141.17799377441406,94.78099822998047 C141.17799377441406,94.78099822998047 -141.17799377441406,94.78099822998047 -141.17799377441406,94.78099822998047 C-141.17799377441406,94.78099822998047 -116.1780014038086,-167.781005859375 -116.1780014038086,-167.781005859375 C-116.1780014038086,-167.781005859375 -1.0529999732971191,-92.78099822998047 -1.0529999732971191,-92.78099822998047 C-1.0529999732971191,-92.78099822998047 0.44699999690055847,-92.78099822998047 0.44699999690055847,-92.78099822998047 C0.44699999690055847,-92.78099822998047 151.17799377441406,-184.781005859375 151.17799377441406,-184.781005859375z"></path></g></g></g><filter id="__lottie_element_39" filterUnits="objectBoundingBox" x="0%" y="0%" width="100%" height="100%"><feComponentTransfer in="SourceGraphic"><feFuncA type="table" tableValues="1.0 0.0"></feFuncA></feComponentTransfer></filter><mask id="__lottie_element_33_2" mask-type="alpha"><g filter="url(#__lottie_element_39)"><rect width="1200" height="1500" x="0" y="0" fill="#ffffff" opacity="0"></rect><use xlink:href="#__lottie_element_33"></use></g></mask><linearGradient id="__lottie_element_494" spreadMethod="pad" gradientUnits="userSpaceOnUse" x1="-394.7929992675781" y1="-1.2070000171661377" x2="371.6050109863281" y2="259.718994140625"><stop offset="0%" stop-color="rgb(255,194,114)"></stop><stop offset="50%" stop-color="rgb(255,155,104)"></stop><stop offset="100%" stop-color="rgb(255,116,94)"></stop></linearGradient><linearGradient id="__lottie_element_498" spreadMethod="pad" gradientUnits="userSpaceOnUse" x1="-22.945999145507812" y1="-25.263999938964844" x2="50.362998962402344" y2="45.733001708984375"><stop offset="0%" stop-color="rgb(221,195,253)"></stop><stop offset="50%" stop-color="rgb(134,122,235)"></stop><stop offset="100%" stop-color="rgb(48,49,217)"></stop></linearGradient><linearGradient id="__lottie_element_502" spreadMethod="pad" gradientUnits="userSpaceOnUse" x1="-22.945999145507812" y1="-25.263999938964844" x2="50.362998962402344" y2="45.733001708984375"><stop offset="0%" stop-color="rgb(56,48,227)"></stop><stop offset="50%" stop-color="rgb(156,82,160)"></stop><stop offset="100%" stop-color="rgb(255,116,94)"></stop></linearGradient><linearGradient id="__lottie_element_506" spreadMethod="pad" gradientUnits="userSpaceOnUse" x1="-22.945999145507812" y1="-25.263999938964844" x2="50.362998962402344" y2="45.733001708984375"><stop offset="0%" stop-color="rgb(56,48,227)"></stop><stop offset="50%" stop-color="rgb(156,82,160)"></stop><stop offset="100%" stop-color="rgb(255,116,94)"></stop></linearGradient><linearGradient id="__lottie_element_510" spreadMethod="pad" gradientUnits="userSpaceOnUse" x1="-22.945999145507812" y1="-25.263999938964844" x2="50.362998962402344" y2="45.733001708984375"><stop offset="0%" stop-color="rgb(221,195,253)"></stop><stop offset="50%" stop-color="rgb(134,122,235)"></stop><stop offset="100%" stop-color="rgb(48,49,217)"></stop></linearGradient><linearGradient id="__lottie_element_514" spreadMethod="pad" gradientUnits="userSpaceOnUse" x1="-212.74899291992188" y1="-78.00199890136719" x2="228.94900512695312" y2="378.0799865722656"><stop offset="0%" stop-color="rgb(255,116,94)"></stop><stop offset="50%" stop-color="rgb(255,155,104)"></stop><stop offset="100%" stop-color="rgb(255,194,114)"></stop></linearGradient><linearGradient id="__lottie_element_518" spreadMethod="pad" gradientUnits="userSpaceOnUse" x1="-215.18800354003906" y1="-112.6760025024414" x2="237.5749969482422" y2="307.1180114746094"><stop offset="0%" stop-color="rgb(255,116,94)"></stop><stop offset="50%" stop-color="rgb(255,155,104)"></stop><stop offset="100%" stop-color="rgb(255,194,114)"></stop></linearGradient><linearGradient id="__lottie_element_522" spreadMethod="pad" gradientUnits="userSpaceOnUse" x1="-220.99200439453125" y1="-213.1280059814453" x2="226.9770050048828" y2="217.58099365234375"><stop offset="0%" stop-color="rgb(255,116,94)"></stop><stop offset="50%" stop-color="rgb(255,155,104)"></stop><stop offset="100%" stop-color="rgb(255,194,114)"></stop></linearGradient><linearGradient id="__lottie_element_526" spreadMethod="pad" gradientUnits="userSpaceOnUse" x1="-229.5590057373047" y1="-295.427001953125" x2="215.63299560546875" y2="161.16000366210938"><stop offset="0%" stop-color="rgb(255,116,94)"></stop><stop offset="50%" stop-color="rgb(255,155,104)"></stop><stop offset="100%" stop-color="rgb(255,194,114)"></stop></linearGradient><linearGradient id="__lottie_element_530" spreadMethod="pad" gradientUnits="userSpaceOnUse" x1="-206.4029998779297" y1="-361.2439880371094" x2="215.49600219726562" y2="84.66999816894531"><stop offset="0%" stop-color="rgb(255,116,94)"></stop><stop offset="50%" stop-color="rgb(255,155,104)"></stop><stop offset="100%" stop-color="rgb(255,194,114)"></stop></linearGradient><linearGradient id="__lottie_element_534" spreadMethod="pad" gradientUnits="userSpaceOnUse" x1="412.55999755859375" y1="410.5989990234375" x2="-145.65899658203125" y2="-149.031005859375"><stop offset="0%" stop-color="rgb(56,48,227)"></stop><stop offset="50%" stop-color="rgb(156,82,160)"></stop><stop offset="100%" stop-color="rgb(255,116,94)"></stop></linearGradient><linearGradient id="__lottie_element_572" spreadMethod="pad" gradientUnits="userSpaceOnUse" x1="128.01199340820312" y1="174.1219940185547" x2="-106.0739974975586" y2="-155.6439971923828"><stop offset="0%" stop-color="rgb(255,116,94)"></stop><stop offset="50%" stop-color="rgb(255,155,104)"></stop><stop offset="100%" stop-color="rgb(255,194,114)"></stop></linearGradient><g id="__lottie_element_568"><g transform="matrix(0.9396911859512329,-0.34201961755752563,0.34201961755752563,0.9396911859512329,600,749.9998168945312)" opacity="1" style="display: none;"><g opacity="1" transform="matrix(1,0,0,1,0,0)"><path fill="rgb(255,255,255)" fill-opacity="1" d=" M353,154 C230,183 231,285 -12,218 C-255,151 -364,227 -364,227 C-364,227 -484,421 -481,421 C-478,421 -12,445 2,446 C16,447 305,463 305,463 C305,463 435,339 430,330 C425,321 476,125 353,154z"></path></g></g></g><mask id="__lottie_element_568_1" mask-type="alpha"><use xlink:href="#__lottie_element_568"></use></mask><linearGradient id="__lottie_element_617" spreadMethod="pad" gradientUnits="userSpaceOnUse" x1="95.40799713134766" y1="152.072998046875" x2="-82.7040023803711" y2="-90.26599884033203"><stop offset="0%" stop-color="rgb(255,116,94)"></stop><stop offset="50%" stop-color="rgb(255,155,104)"></stop><stop offset="100%" stop-color="rgb(255,194,114)"></stop></linearGradient><linearGradient id="__lottie_element_622" spreadMethod="pad" gradientUnits="userSpaceOnUse" x1="82.31800079345703" y1="93.45899963378906" x2="-172.0749969482422" y2="-272.07501220703125"><stop offset="0%" stop-color="rgb(255,116,94)"></stop><stop offset="50%" stop-color="rgb(255,155,104)"></stop><stop offset="100%" stop-color="rgb(255,194,114)"></stop></linearGradient><linearGradient id="__lottie_element_625" spreadMethod="pad" gradientUnits="userSpaceOnUse" x1="95.40799713134766" y1="152.072998046875" x2="-82.7040023803711" y2="-90.26599884033203"><stop offset="0%" stop-color="rgb(255,116,94)"></stop><stop offset="50%" stop-color="rgb(255,155,104)"></stop><stop offset="100%" stop-color="rgb(255,194,114)"></stop></linearGradient><linearGradient id="__lottie_element_630" spreadMethod="pad" gradientUnits="userSpaceOnUse" x1="99.52799987792969" y1="162.83200073242188" x2="-230.36199951171875" y2="-356.5010070800781"><stop offset="0%" stop-color="rgb(255,116,94)"></stop><stop offset="50%" stop-color="rgb(255,155,104)"></stop><stop offset="100%" stop-color="rgb(255,194,114)"></stop></linearGradient><linearGradient id="__lottie_element_633" spreadMethod="pad" gradientUnits="userSpaceOnUse" x1="95.40799713134766" y1="152.072998046875" x2="-82.7040023803711" y2="-90.26599884033203"><stop offset="0%" stop-color="rgb(255,116,94)"></stop><stop offset="50%" stop-color="rgb(255,155,104)"></stop><stop offset="100%" stop-color="rgb(255,194,114)"></stop></linearGradient></defs><g clip-path="url(#__lottie_element_4)"><g style="display: block;" transform="matrix(1,0,0,1,600,750)" opacity="1"><g opacity="1" transform="matrix(1,0,0,1,0,0)"><path stroke-linecap="butt" stroke-linejoin="miter" fill-opacity="0" stroke-miterlimit="4" stroke="rgb(48,49,217)" stroke-opacity="1" stroke-width="2" d="M0 0"></path></g></g><g transform="matrix(1,0,0,1,600,750)" opacity="1" style="display: block;"><g opacity="1" transform="matrix(1,0,0,1,0,0)"><path stroke="url(#__lottie_element_494)" stroke-linecap="butt" stroke-linejoin="miter" fill-opacity="0" stroke-miterlimit="4" stroke-opacity="1" stroke-width="35" d="M0 0"></path></g></g><g style="display: block;" transform="matrix(1,0,0,1,600,750)" opacity="1"><g opacity="1" transform="matrix(1,0,0,1,0,0)"><path stroke-linecap="butt" stroke-linejoin="miter" fill-opacity="0" stroke-miterlimit="4" stroke="rgb(221,195,253)" stroke-opacity="1" stroke-width="3" d="M0 0"></path></g></g><g style="display: block;" transform="matrix(0.10452846437692642,-0.9945219159126282,0.9945219159126282,0.10452846437692642,362.43084716796875,1194.3603515625)" opacity="1"><g opacity="1" transform="matrix(1,0,0,1,0,0)"><path stroke-linecap="butt" stroke-linejoin="miter" fill-opacity="0" stroke-miterlimit="4" stroke="rgb(255,255,255)" stroke-opacity="1" stroke-width="3" d="M0 0"></path></g></g><g style="display: block;" transform="matrix(1,0,0,1,598,964)" opacity="1"><g opacity="1" transform="matrix(1,0,0,1,0,0)"><path stroke="url(#__lottie_element_17)" stroke-linecap="butt" stroke-linejoin="miter" fill-opacity="0" stroke-miterlimit="4" stroke-opacity="1" stroke-width="35" d=" M-16.481000900268555,-188.05599975585938 C-17.10300064086914,-188.23500061035156 -17.726999282836914,-188.41200256347656 -18.354000091552734,-188.58799743652344"></path></g></g><g style="display: block;" transform="matrix(1,0,0,1,284,964)" opacity="1"><g opacity="1" transform="matrix(1,0,0,1,0,0)"><path stroke="url(#__lottie_element_21)" stroke-linecap="butt" stroke-linejoin="miter" fill-opacity="0" stroke-miterlimit="4" stroke-opacity="1" stroke-width="35" d="M0 0"></path></g></g><g style="display: none;" transform="matrix(1,0,0,1,1147.8057861328125,835.0626220703125)" opacity="0.036981313448000055"><g opacity="1" transform="matrix(1,0,0,1,-115.8280029296875,-115.8280029296875)"><path fill="rgb(48,49,217)" fill-opacity="1" d=" M0,-25 C13.797499656677246,-25 25,-13.797499656677246 25,0 C25,13.797499656677246 13.797499656677246,25 0,25 C-13.797499656677246,25 -25,13.797499656677246 -25,0 C-25,-13.797499656677246 -13.797499656677246,-25 0,-25z"></path></g></g><g style="display: none;" transform="matrix(1,0,0,1,308.189208984375,547.6378173828125)" opacity="0.036981313448000055"><g opacity="1" transform="matrix(1,0,0,1,-115.8280029296875,-115.8280029296875)"><path fill="rgb(221,195,253)" fill-opacity="1" d=" M0,-25 C13.797499656677246,-25 25,-13.797499656677246 25,0 C25,13.797499656677246 13.797499656677246,25 0,25 C-13.797499656677246,25 -25,13.797499656677246 -25,0 C-25,-13.797499656677246 -13.797499656677246,-25 0,-25z"></path></g></g><g transform="matrix(-0.9963287115097046,-0.0016100050415843725,0.0016100050415843725,-0.9963287115097046,599.7957763671875,747.268798828125)" opacity="0.5" style="display: none;"><path stroke-linecap="butt" stroke-linejoin="miter" fill-opacity="0" stroke-miterlimit="4" stroke="rgb(48,49,217)" stroke-opacity="1" stroke-width="2" d=" M-4.626999855041504,-180 C59.92300033569336,-180 126,-180 126,-180 C126,-180 126,-109.31400299072266 126,-109.31400299072266 C126,-84.69599914550781 113.62899780273438,-61.80400085449219 93.12200164794922,-48.1609992980957 C93.12200164794922,-48.1609992980957 35.915000915527344,-10.02299976348877 35.915000915527344,-10.02299976348877 C35.915000915527344,-10.02299976348877 22.763999938964844,-1.1460000276565552 22.763999938964844,-1.1460000276565552 C22.763999938964844,-1.1460000276565552 35.915000915527344,7.730999946594238 35.915000915527344,7.730999946594238 C35.915000915527344,7.730999946594238 93.12200164794922,45.86899948120117 93.12200164794922,45.86899948120117 C113.62899780273438,59.55500030517578 126,82.40399932861328 126,107.02100372314453 C126,107.02100372314453 126,177.70799255371094 126,177.70799255371094 C126,177.70799255371094 -126.5,177.70799255371094 -126.5,177.70799255371094 C-126.5,177.70799255371094 -126.5,107.02100372314453 -126.5,107.02100372314453 C-126.5,82.40399932861328 -114.12899780273438,59.55500030517578 -93.62200164794922,45.86899948120117 C-93.62200164794922,45.86899948120117 -36.415000915527344,7.730999946594238 -36.415000915527344,7.730999946594238 C-36.415000915527344,7.730999946594238 -23.263999938964844,-1.1460000276565552 -23.263999938964844,-1.1460000276565552 C-23.263999938964844,-1.1460000276565552 -36.415000915527344,-10.02299976348877 -36.415000915527344,-10.02299976348877 C-36.415000915527344,-10.02299976348877 -93.62200164794922,-48.1609992980957 -93.62200164794922,-48.1609992980957 C-114.12899780273438,-61.80400085449219 -126.5,-84.69599914550781 -126.5,-109.31400299072266 C-126.5,-109.31400299072266 -126.5,-180 -126.5,-180 C-126.5,-180 -126.5,-180 -126.5,-180 C-126.5,-180 -66.26000213623047,-180 -4.626999855041504,-180"></path></g><g style="display: none;" transform="matrix(-0.996319055557251,-0.004673016723245382,0.004673016723245382,-0.996319055557251,599.79931640625,747.26806640625)" opacity="1"><path stroke-linecap="butt" stroke-linejoin="miter" fill-opacity="0" stroke-miterlimit="4" stroke="rgb(221,195,252)" stroke-opacity="1" stroke-width="3" d=" M-4.626999855041504,-180 C59.92300033569336,-180 126,-180 126,-180 C126,-180 126,-109.31400299072266 126,-109.31400299072266 C126,-84.69599914550781 113.62899780273438,-61.80400085449219 93.12200164794922,-48.1609992980957 C93.12200164794922,-48.1609992980957 35.915000915527344,-10.02299976348877 35.915000915527344,-10.02299976348877 C35.915000915527344,-10.02299976348877 22.763999938964844,-1.1460000276565552 22.763999938964844,-1.1460000276565552 C22.763999938964844,-1.1460000276565552 35.915000915527344,7.730999946594238 35.915000915527344,7.730999946594238 C35.915000915527344,7.730999946594238 93.12200164794922,45.86899948120117 93.12200164794922,45.86899948120117 C113.62899780273438,59.55500030517578 126,82.40399932861328 126,107.02100372314453 C126,107.02100372314453 126,177.70799255371094 126,177.70799255371094 C126,177.70799255371094 -126.5,177.70799255371094 -126.5,177.70799255371094 C-126.5,177.70799255371094 -126.5,107.02100372314453 -126.5,107.02100372314453 C-126.5,82.40399932861328 -114.12899780273438,59.55500030517578 -93.62200164794922,45.86899948120117 C-93.62200164794922,45.86899948120117 -36.415000915527344,7.730999946594238 -36.415000915527344,7.730999946594238 C-36.415000915527344,7.730999946594238 -23.263999938964844,-1.1460000276565552 -23.263999938964844,-1.1460000276565552 C-23.263999938964844,-1.1460000276565552 -36.415000915527344,-10.02299976348877 -36.415000915527344,-10.02299976348877 C-36.415000915527344,-10.02299976348877 -93.62200164794922,-48.1609992980957 -93.62200164794922,-48.1609992980957 C-114.12899780273438,-61.80400085449219 -126.5,-84.69599914550781 -126.5,-109.31400299072266 C-126.5,-109.31400299072266 -126.5,-180 -126.5,-180 C-126.5,-180 -126.5,-180 -126.5,-180 C-126.5,-180 -66.26000213623047,-180 -4.626999855041504,-180"></path></g><g transform="matrix(10.986942291259766,0,0,10.986942291259766,885.0908813476562,960.0482177734375)" opacity="0.3" style="display: block;"><g opacity="1" transform="matrix(1,0,0,1,-29.145999908447266,-19.082000732421875)"><path fill="url(#__lottie_element_502)" fill-opacity="1" d=" M22.142499923706055,-18.142499923706055 C22.142499923706055,-18.142499923706055 22.142499923706055,18.142499923706055 22.142499923706055,18.142499923706055 C22.142499923706055,20.350099563598633 20.350099563598633,22.142499923706055 18.142499923706055,22.142499923706055 C18.142499923706055,22.142499923706055 -18.142499923706055,22.142499923706055 -18.142499923706055,22.142499923706055 C-20.350099563598633,22.142499923706055 -22.142499923706055,20.350099563598633 -22.142499923706055,18.142499923706055 C-22.142499923706055,18.142499923706055 -22.142499923706055,-18.142499923706055 -22.142499923706055,-18.142499923706055 C-22.142499923706055,-20.350099563598633 -20.350099563598633,-22.142499923706055 -18.142499923706055,-22.142499923706055 C-18.142499923706055,-22.142499923706055 18.142499923706055,-22.142499923706055 18.142499923706055,-22.142499923706055 C20.350099563598633,-22.142499923706055 22.142499923706055,-20.350099563598633 22.142499923706055,-18.142499923706055z"></path></g></g><g transform="matrix(10.986942291259766,0,0,10.986942291259766,885.0908813476562,960.0482177734375)" opacity="0.1" style="display: block;"><g opacity="1" transform="matrix(1,0,0,1,-29.145999908447266,-19.082000732421875)"><path fill="url(#__lottie_element_506)" fill-opacity="1" d=" M24.142499923706055,-20.142499923706055 C24.142499923706055,-20.142499923706055 24.142499923706055,20.142499923706055 24.142499923706055,20.142499923706055 C24.142499923706055,22.350099563598633 22.350099563598633,24.142499923706055 20.142499923706055,24.142499923706055 C20.142499923706055,24.142499923706055 -20.142499923706055,24.142499923706055 -20.142499923706055,24.142499923706055 C-22.350099563598633,24.142499923706055 -24.142499923706055,22.350099563598633 -24.142499923706055,20.142499923706055 C-24.142499923706055,20.142499923706055 -24.142499923706055,-20.142499923706055 -24.142499923706055,-20.142499923706055 C-24.142499923706055,-22.350099563598633 -22.350099563598633,-24.142499923706055 -20.142499923706055,-24.142499923706055 C-20.142499923706055,-24.142499923706055 20.142499923706055,-24.142499923706055 20.142499923706055,-24.142499923706055 C22.350099563598633,-24.142499923706055 24.142499923706055,-22.350099563598633 24.142499923706055,-20.142499923706055z"></path></g></g><g transform="matrix(2.7007551193237305,0,0,2.7007551193237305,644.0601806640625,825.8027954101562)" opacity="0.008650909090908883" style="display: none;"><g opacity="1" transform="matrix(1,0,0,1,-29.145999908447266,-19.082000732421875)"><path fill="url(#__lottie_element_498)" fill-opacity="1" d=" M26.142499923706055,0 C26.142499923706055,0 26.142499923706055,0 26.142499923706055,0 C26.142499923706055,14.428045272827148 14.428045272827148,26.142499923706055 0,26.142499923706055 C0,26.142499923706055 0,26.142499923706055 0,26.142499923706055 C-14.428045272827148,26.142499923706055 -26.142499923706055,14.428045272827148 -26.142499923706055,0 C-26.142499923706055,0 -26.142499923706055,0 -26.142499923706055,0 C-26.142499923706055,-14.428045272827148 -14.428045272827148,-26.142499923706055 0,-26.142499923706055 C0,-26.142499923706055 0,-26.142499923706055 0,-26.142499923706055 C14.428045272827148,-26.142499923706055 26.142499923706055,-14.428045272827148 26.142499923706055,0z"></path></g></g><g transform="matrix(2.776794195175171,0,0,2.776794195175171,647.7792358398438,801.2102661132812)" opacity="0.009071738181818176" style="display: none;"><g opacity="1" transform="matrix(1,0,0,1,-29.145999908447266,-19.082000732421875)"><path fill="url(#__lottie_element_510)" fill-opacity="1" d=" M26.142499923706055,0 C26.142499923706055,0 26.142499923706055,0 26.142499923706055,0 C26.142499923706055,14.428045272827148 14.428045272827148,26.142499923706055 0,26.142499923706055 C0,26.142499923706055 0,26.142499923706055 0,26.142499923706055 C-14.428045272827148,26.142499923706055 -26.142499923706055,14.428045272827148 -26.142499923706055,0 C-26.142499923706055,0 -26.142499923706055,0 -26.142499923706055,0 C-26.142499923706055,-14.428045272827148 -14.428045272827148,-26.142499923706055 0,-26.142499923706055 C0,-26.142499923706055 0,-26.142499923706055 0,-26.142499923706055 C14.428045272827148,-26.142499923706055 26.142499923706055,-14.428045272827148 26.142499923706055,0z"></path></g></g><g mask="url(#__lottie_element_33_2)" style="display: block;"><g transform="matrix(8.451494216918945,0,0,8.451494216918945,815.3711547851562,914.411865234375)" opacity="1"><path stroke-linecap="butt" stroke-linejoin="miter" fill-opacity="0" stroke-miterlimit="4" stroke="rgb(255,194,114)" stroke-opacity="0.1" stroke-width="2" d=" M-3.45,-41.53 C-3.45,-41.53 -3.45,2.76 -3.45,2.76 C-3.45,4.96 -5.24,6.76 -7.45,6.76 C-7.45,6.76 -51.73,6.76 -51.73,6.76 C-53.94,6.76 -55.73,4.96 -55.73,2.76 C-55.73,2.76 -55.73,-41.53 -55.73,-41.53 C-55.73,-43.74 -53.94,-45.53 -51.73,-45.53 C-51.73,-45.53 -7.45,-45.53 -7.45,-45.53 C-5.24,-45.53 -3.45,-43.74 -3.45,-41.53z"></path><g opacity="1" transform="matrix(1,0,0,1,-29.58799934387207,-19.38599967956543)"><path fill="url(#__lottie_element_32)" fill-opacity="1" d=" M26.142499923706055,-22.142499923706055 C26.142499923706055,-22.142499923706055 26.142499923706055,22.142499923706055 26.142499923706055,22.142499923706055 C26.142499923706055,24.350099563598633 24.350099563598633,26.142499923706055 22.142499923706055,26.142499923706055 C22.142499923706055,26.142499923706055 -22.142499923706055,26.142499923706055 -22.142499923706055,26.142499923706055 C-24.350099563598633,26.142499923706055 -26.142499923706055,24.350099563598633 -26.142499923706055,22.142499923706055 C-26.142499923706055,22.142499923706055 -26.142499923706055,-22.142499923706055 -26.142499923706055,-22.142499923706055 C-26.142499923706055,-24.350099563598633 -24.350099563598633,-26.142499923706055 -22.142499923706055,-26.142499923706055 C-22.142499923706055,-26.142499923706055 22.142499923706055,-26.142499923706055 22.142499923706055,-26.142499923706055 C24.350099563598633,-26.142499923706055 26.142499923706055,-24.350099563598633 26.142499923706055,-22.142499923706055z"></path></g></g></g><g transform="matrix(0.9152968525886536,0,0,0.9152968525886536,598.9485473632812,721.037841796875)" opacity="1" style="display: block;"><g opacity="1" transform="matrix(1,0,0,1,-37.92599868774414,-116.76399993896484)"><path fill="url(#__lottie_element_514)" fill-opacity="1" d=" M156.6490020751953,-13.053499221801758 C156.6490020751953,-13.053499221801758 156.6490020751953,13.053499221801758 156.6490020751953,13.053499221801758 C156.6490020751953,15.81299877166748 154.40850830078125,18.053499221801758 151.6490020751953,18.053499221801758 C151.6490020751953,18.053499221801758 -151.6490020751953,18.053499221801758 -151.6490020751953,18.053499221801758 C-154.40850830078125,18.053499221801758 -156.6490020751953,15.81299877166748 -156.6490020751953,13.053499221801758 C-156.6490020751953,13.053499221801758 -156.6490020751953,-13.053499221801758 -156.6490020751953,-13.053499221801758 C-156.6490020751953,-15.81299877166748 -154.40850830078125,-18.053499221801758 -151.6490020751953,-18.053499221801758 C-151.6490020751953,-18.053499221801758 151.6490020751953,-18.053499221801758 151.6490020751953,-18.053499221801758 C154.40850830078125,-18.053499221801758 156.6490020751953,-15.81299877166748 156.6490020751953,-13.053499221801758z"></path></g></g><g transform="matrix(0.9152968525886536,0,0,0.9152968525886536,598.9485473632812,788.6497802734375)" opacity="1" style="display: block;"><g opacity="1" transform="matrix(1,0,0,1,-37.92599868774414,-116.76399993896484)"><path fill="url(#__lottie_element_518)" fill-opacity="1" d=" M156.6490020751953,-13.053499221801758 C156.6490020751953,-13.053499221801758 156.6490020751953,13.053499221801758 156.6490020751953,13.053499221801758 C156.6490020751953,15.81299877166748 154.40850830078125,18.053499221801758 151.6490020751953,18.053499221801758 C151.6490020751953,18.053499221801758 -151.6490020751953,18.053499221801758 -151.6490020751953,18.053499221801758 C-154.40850830078125,18.053499221801758 -156.6490020751953,15.81299877166748 -156.6490020751953,13.053499221801758 C-156.6490020751953,13.053499221801758 -156.6490020751953,-13.053499221801758 -156.6490020751953,-13.053499221801758 C-156.6490020751953,-15.81299877166748 -154.40850830078125,-18.053499221801758 -151.6490020751953,-18.053499221801758 C-151.6490020751953,-18.053499221801758 151.6490020751953,-18.053499221801758 151.6490020751953,-18.053499221801758 C154.40850830078125,-18.053499221801758 156.6490020751953,-15.81299877166748 156.6490020751953,-13.053499221801758z"></path></g></g><g transform="matrix(0.9152968525886536,0,0,0.9152968525886536,598.9485473632812,856.26171875)" opacity="1" style="display: block;"><g opacity="1" transform="matrix(1,0,0,1,-37.92599868774414,-116.76399993896484)"><path fill="url(#__lottie_element_522)" fill-opacity="1" d=" M156.6490020751953,-13.053499221801758 C156.6490020751953,-13.053499221801758 156.6490020751953,13.053499221801758 156.6490020751953,13.053499221801758 C156.6490020751953,15.81299877166748 154.40850830078125,18.053499221801758 151.6490020751953,18.053499221801758 C151.6490020751953,18.053499221801758 -151.6490020751953,18.053499221801758 -151.6490020751953,18.053499221801758 C-154.40850830078125,18.053499221801758 -156.6490020751953,15.81299877166748 -156.6490020751953,13.053499221801758 C-156.6490020751953,13.053499221801758 -156.6490020751953,-13.053499221801758 -156.6490020751953,-13.053499221801758 C-156.6490020751953,-15.81299877166748 -154.40850830078125,-18.053499221801758 -151.6490020751953,-18.053499221801758 C-151.6490020751953,-18.053499221801758 151.6490020751953,-18.053499221801758 151.6490020751953,-18.053499221801758 C154.40850830078125,-18.053499221801758 156.6490020751953,-15.81299877166748 156.6490020751953,-13.053499221801758z"></path></g></g><g transform="matrix(0.006061467342078686,0,0,0.006061467342078686,600.315185546875,749.886962890625)" opacity="0.1" style="display: none;"><g opacity="1" transform="matrix(1,0,0,1,-52.00199890136719,18.645999908447266)"><path fill="url(#__lottie_element_534)" fill-opacity="1" d=" M0,-353.6659851074219 C195.18826293945312,-353.6659851074219 353.6659851074219,-195.18826293945312 353.6659851074219,0 C353.6659851074219,195.18826293945312 195.18826293945312,353.6659851074219 0,353.6659851074219 C-195.18826293945312,353.6659851074219 -353.6659851074219,195.18826293945312 -353.6659851074219,0 C-353.6659851074219,-195.18826293945312 -195.18826293945312,-353.6659851074219 0,-353.6659851074219z"></path></g></g><g transform="matrix(0.9152968525886536,0,0,0.9152968525886536,598.9485473632812,923.8736572265625)" opacity="1" style="display: block;"><g opacity="1" transform="matrix(1,0,0,1,-37.92599868774414,-116.76399993896484)"><path fill="url(#__lottie_element_526)" fill-opacity="1" d=" M156.6490020751953,-13.053499221801758 C156.6490020751953,-13.053499221801758 156.6490020751953,13.053499221801758 156.6490020751953,13.053499221801758 C156.6490020751953,15.81299877166748 154.40850830078125,18.053499221801758 151.6490020751953,18.053499221801758 C151.6490020751953,18.053499221801758 -151.6490020751953,18.053499221801758 -151.6490020751953,18.053499221801758 C-154.40850830078125,18.053499221801758 -156.6490020751953,15.81299877166748 -156.6490020751953,13.053499221801758 C-156.6490020751953,13.053499221801758 -156.6490020751953,-13.053499221801758 -156.6490020751953,-13.053499221801758 C-156.6490020751953,-15.81299877166748 -154.40850830078125,-18.053499221801758 -151.6490020751953,-18.053499221801758 C-151.6490020751953,-18.053499221801758 151.6490020751953,-18.053499221801758 151.6490020751953,-18.053499221801758 C154.40850830078125,-18.053499221801758 156.6490020751953,-15.81299877166748 156.6490020751953,-13.053499221801758z"></path></g></g><g transform="matrix(0.9152968525886536,0,0,0.9152968525886536,598.9485473632812,991.485595703125)" opacity="1" style="display: block;"><g opacity="1" transform="matrix(1,0,0,1,-37.92599868774414,-116.76399993896484)"><path fill="url(#__lottie_element_530)" fill-opacity="1" d=" M156.31358337402344,-13.053499221801758 C156.31358337402344,-13.053499221801758 156.31358337402344,13.053499221801758 156.31358337402344,13.053499221801758 C156.31358337402344,15.81299877166748 154.07308959960938,18.053499221801758 151.31358337402344,18.053499221801758 C151.31358337402344,18.053499221801758 -151.31358337402344,18.053499221801758 -151.31358337402344,18.053499221801758 C-154.07308959960938,18.053499221801758 -156.31358337402344,15.81299877166748 -156.31358337402344,13.053499221801758 C-156.31358337402344,13.053499221801758 -156.31358337402344,-13.053499221801758 -156.31358337402344,-13.053499221801758 C-156.31358337402344,-15.81299877166748 -154.07308959960938,-18.053499221801758 -151.31358337402344,-18.053499221801758 C-151.31358337402344,-18.053499221801758 151.31358337402344,-18.053499221801758 151.31358337402344,-18.053499221801758 C154.07308959960938,-18.053499221801758 156.31358337402344,-15.81299877166748 156.31358337402344,-13.053499221801758z"></path></g></g><g transform="matrix(0.003678428940474987,0,0,0.003678428940474987,602.4295654296875,713.3671875)" opacity="1" style="display: none;"><g opacity="1" transform="matrix(1,0,0,1,-0.5809999704360962,-0.3919999897480011)"><path fill="rgb(221,195,253)" fill-opacity="1" d=" M0,-19.235000610351562 C10.61579704284668,-19.235000610351562 19.235000610351562,-10.61579704284668 19.235000610351562,0 C19.235000610351562,10.61579704284668 10.61579704284668,19.235000610351562 0,19.235000610351562 C-10.61579704284668,19.235000610351562 -19.235000610351562,10.61579704284668 -19.235000610351562,0 C-19.235000610351562,-10.61579704284668 -10.61579704284668,-19.235000610351562 0,-19.235000610351562z"></path></g></g><g transform="matrix(0.0016677048988640308,0,0,0.0016677048988640308,602.7769165039062,703.5449829101562)" opacity="1" style="display: none;"><g opacity="1" transform="matrix(1,0,0,1,-0.5809999704360962,-0.3919999897480011)"><path fill="rgb(255,194,114)" fill-opacity="1" d=" M0,-19.235000610351562 C10.61579704284668,-19.235000610351562 19.235000610351562,-10.61579704284668 19.235000610351562,0 C19.235000610351562,10.61579704284668 10.61579704284668,19.235000610351562 0,19.235000610351562 C-10.61579704284668,19.235000610351562 -19.235000610351562,10.61579704284668 -19.235000610351562,0 C-19.235000610351562,-10.61579704284668 -10.61579704284668,-19.235000610351562 0,-19.235000610351562z"></path></g></g><g transform="matrix(0.00024349760496988893,0,0,0.00024349760496988893,603.1981201171875,690.8239135742188)" opacity="1" style="display: none;"><g opacity="1" transform="matrix(1,0,0,1,-0.5809999704360962,-0.3919999897480011)"><path fill="rgb(255,255,255)" fill-opacity="1" d=" M0,-19.235000610351562 C10.61579704284668,-19.235000610351562 19.235000610351562,-10.61579704284668 19.235000610351562,0 C19.235000610351562,10.61579704284668 10.61579704284668,19.235000610351562 0,19.235000610351562 C-10.61579704284668,19.235000610351562 -19.235000610351562,10.61579704284668 -19.235000610351562,0 C-19.235000610351562,-10.61579704284668 -10.61579704284668,-19.235000610351562 0,-19.235000610351562z"></path></g></g><g transform="matrix(0.00009139357280218974,0,0,0.00009139357280218974,603.2529296875,689.1494140625)" opacity="1" style="display: none;"><g opacity="1" transform="matrix(1,0,0,1,-0.5809999704360962,-0.3919999897480011)"><path fill="rgb(48,49,217)" fill-opacity="1" d=" M0,-19.235000610351562 C10.61579704284668,-19.235000610351562 19.235000610351562,-10.61579704284668 19.235000610351562,0 C19.235000610351562,10.61579704284668 10.61579704284668,19.235000610351562 0,19.235000610351562 C-10.61579704284668,19.235000610351562 -19.235000610351562,10.61579704284668 -19.235000610351562,0 C-19.235000610351562,-10.61579704284668 -10.61579704284668,-19.235000610351562 0,-19.235000610351562z"></path></g></g><g transform="matrix(0.00036265599192120135,0,0,0.00036265599192120135,603.2081298828125,690.5039672851562)" opacity="1" style="display: none;"><g opacity="1" transform="matrix(1,0,0,1,-0.5809999704360962,-0.3919999897480011)"><path fill="rgb(221,195,253)" fill-opacity="1" d=" M0,-19.235000610351562 C10.61579704284668,-19.235000610351562 19.235000610351562,-10.61579704284668 19.235000610351562,0 C19.235000610351562,10.61579704284668 10.61579704284668,19.235000610351562 0,19.235000610351562 C-10.61579704284668,19.235000610351562 -19.235000610351562,10.61579704284668 -19.235000610351562,0 C-19.235000610351562,-10.61579704284668 -10.61579704284668,-19.235000610351562 0,-19.235000610351562z"></path></g></g><g transform="matrix(0.001121822278946638,0,0,0.001121822278946638,603.231201171875,689.8037109375)" opacity="1" style="display: none;"><g opacity="1" transform="matrix(1,0,0,1,-0.5809999704360962,-0.3919999897480011)"><path fill="rgb(255,194,114)" fill-opacity="1" d=" M0,-19.235000610351562 C10.61579704284668,-19.235000610351562 19.235000610351562,-10.61579704284668 19.235000610351562,0 C19.235000610351562,10.61579704284668 10.61579704284668,19.235000610351562 0,19.235000610351562 C-10.61579704284668,19.235000610351562 -19.235000610351562,10.61579704284668 -19.235000610351562,0 C-19.235000610351562,-10.61579704284668 -10.61579704284668,-19.235000610351562 0,-19.235000610351562z"></path></g></g><g transform="matrix(0.000033125601476058364,0,0,0.000033125601476058364,603.36328125,685.7825317382812)" opacity="1" style="display: none;"><g opacity="1" transform="matrix(1,0,0,1,-0.5809999704360962,-0.3919999897480011)"><path fill="rgb(255,255,255)" fill-opacity="1" d=" M0,-19.235000610351562 C10.61579704284668,-19.235000610351562 19.235000610351562,-10.61579704284668 19.235000610351562,0 C19.235000610351562,10.61579704284668 10.61579704284668,19.235000610351562 0,19.235000610351562 C-10.61579704284668,19.235000610351562 -19.235000610351562,10.61579704284668 -19.235000610351562,0 C-19.235000610351562,-10.61579704284668 -10.61579704284668,-19.235000610351562 0,-19.235000610351562z"></path></g></g><g transform="matrix(0.0017741216579452157,0,0,0.0017741216579452157,602.9415283203125,698.4773559570312)" opacity="1" style="display: none;"><g opacity="1" transform="matrix(1,0,0,1,-0.5809999704360962,-0.3919999897480011)"><path fill="rgb(255,116,94)" fill-opacity="1" d=" M0,-19.235000610351562 C10.61579704284668,-19.235000610351562 19.235000610351562,-10.61579704284668 19.235000610351562,0 C19.235000610351562,10.61579704284668 10.61579704284668,19.235000610351562 0,19.235000610351562 C-10.61579704284668,19.235000610351562 -19.235000610351562,10.61579704284668 -19.235000610351562,0 C-19.235000610351562,-10.61579704284668 -10.61579704284668,-19.235000610351562 0,-19.235000610351562z"></path></g></g><g transform="matrix(0.00011489040480228141,0,0,0.00011489040480228141,603.3746337890625,685.435302734375)" opacity="1" style="display: none;"><g opacity="1" transform="matrix(1,0,0,1,-0.5809999704360962,-0.3919999897480011)"><path fill="rgb(255,116,94)" fill-opacity="1" d=" M0,-19.235000610351562 C10.61579704284668,-19.235000610351562 19.235000610351562,-10.61579704284668 19.235000610351562,0 C19.235000610351562,10.61579704284668 10.61579704284668,19.235000610351562 0,19.235000610351562 C-10.61579704284668,19.235000610351562 -19.235000610351562,10.61579704284668 -19.235000610351562,0 C-19.235000610351562,-10.61579704284668 -10.61579704284668,-19.235000610351562 0,-19.235000610351562z"></path></g></g><g transform="matrix(0.003109490033239126,0,0,0.003109490033239126,602.4259643554688,713.4749755859375)" opacity="1" style="display: none;"><g opacity="1" transform="matrix(1,0,0,1,-0.5809999704360962,-0.3919999897480011)"><path fill="rgb(255,255,255)" fill-opacity="1" d=" M0,-19.235000610351562 C10.61579704284668,-19.235000610351562 19.235000610351562,-10.61579704284668 19.235000610351562,0 C19.235000610351562,10.61579704284668 10.61579704284668,19.235000610351562 0,19.235000610351562 C-10.61579704284668,19.235000610351562 -19.235000610351562,10.61579704284668 -19.235000610351562,0 C-19.235000610351562,-10.61579704284668 -10.61579704284668,-19.235000610351562 0,-19.235000610351562z"></path></g></g><g transform="matrix(0.006728498265147209,0,0,0.006728498265147209,602.2754516601562,717.860595703125)" opacity="1" style="display: none;"><g opacity="1" transform="matrix(1,0,0,1,-0.5809999704360962,-0.3919999897480011)"><path fill="rgb(255,194,114)" fill-opacity="1" d=" M0,-19.235000610351562 C10.61579704284668,-19.235000610351562 19.235000610351562,-10.61579704284668 19.235000610351562,0 C19.235000610351562,10.61579704284668 10.61579704284668,19.235000610351562 0,19.235000610351562 C-10.61579704284668,19.235000610351562 -19.235000610351562,10.61579704284668 -19.235000610351562,0 C-19.235000610351562,-10.61579704284668 -10.61579704284668,-19.235000610351562 0,-19.235000610351562z"></path></g></g><g transform="matrix(0.00008738000178709626,0,0,0.00008738000178709626,603.3956909179688,684.8026733398438)" opacity="1" style="display: none;"><g opacity="1" transform="matrix(1,0,0,1,-0.5809999704360962,-0.3919999897480011)"><path fill="rgb(221,195,253)" fill-opacity="1" d=" M0,-19.235000610351562 C10.61579704284668,-19.235000610351562 19.235000610351562,-10.61579704284668 19.235000610351562,0 C19.235000610351562,10.61579704284668 10.61579704284668,19.235000610351562 0,19.235000610351562 C-10.61579704284668,19.235000610351562 -19.235000610351562,10.61579704284668 -19.235000610351562,0 C-19.235000610351562,-10.61579704284668 -10.61579704284668,-19.235000610351562 0,-19.235000610351562z"></path></g></g><g transform="matrix(0.00035341441980563104,0,0,0.00035341441980563104,602.9281616210938,698.7440795898438)" opacity="1" style="display: none;"><g opacity="1" transform="matrix(1,0,0,1,-0.5809999704360962,-0.3919999897480011)"><path fill="rgb(255,194,114)" fill-opacity="1" d=" M0,-19.235000610351562 C10.61579704284668,-19.235000610351562 19.235000610351562,-10.61579704284668 19.235000610351562,0 C19.235000610351562,10.61579704284668 10.61579704284668,19.235000610351562 0,19.235000610351562 C-10.61579704284668,19.235000610351562 -19.235000610351562,10.61579704284668 -19.235000610351562,0 C-19.235000610351562,-10.61579704284668 -10.61579704284668,-19.235000610351562 0,-19.235000610351562z"></path></g></g><g transform="matrix(0.0005836259806528687,0,0,0.0005836259806528687,603.0944213867188,693.8174438476562)" opacity="1" style="display: none;"><g opacity="1" transform="matrix(1,0,0,1,-0.5809999704360962,-0.3919999897480011)"><path fill="rgb(255,255,255)" fill-opacity="1" d=" M0,-19.235000610351562 C10.61579704284668,-19.235000610351562 19.235000610351562,-10.61579704284668 19.235000610351562,0 C19.235000610351562,10.61579704284668 10.61579704284668,19.235000610351562 0,19.235000610351562 C-10.61579704284668,19.235000610351562 -19.235000610351562,10.61579704284668 -19.235000610351562,0 C-19.235000610351562,-10.61579704284668 -10.61579704284668,-19.235000610351562 0,-19.235000610351562z"></path></g></g><g transform="matrix(0.00048204799531958997,0,0,0.00048204799531958997,603.2053833007812,690.474365234375)" opacity="1" style="display: none;"><g opacity="1" transform="matrix(1,0,0,1,-0.5809999704360962,-0.3919999897480011)"><path fill="rgb(255,194,114)" fill-opacity="1" d=" M0,-19.235000610351562 C10.61579704284668,-19.235000610351562 19.235000610351562,-10.61579704284668 19.235000610351562,0 C19.235000610351562,10.61579704284668 10.61579704284668,19.235000610351562 0,19.235000610351562 C-10.61579704284668,19.235000610351562 -19.235000610351562,10.61579704284668 -19.235000610351562,0 C-19.235000610351562,-10.61579704284668 -10.61579704284668,-19.235000610351562 0,-19.235000610351562z"></path></g></g><g transform="matrix(0,0,0,0,601.9285278320312,772.605712890625)" opacity="0.15" style="display: none;"><g opacity="1" transform="matrix(1,0,0,1,0,0)"><path fill="url(#__lottie_element_625)" fill-opacity="1" d=" M-2.0959999561309814,-255.35699462890625 C-2.0959999561309814,-255.35699462890625 60.74100112915039,-126.072998046875 60.74100112915039,-126.072998046875 C61.946998596191406,-123.59200286865234 64.2969970703125,-121.86299896240234 67.0250015258789,-121.44999694824219 C67.0250015258789,-121.44999694824219 209.14999389648438,-99.9209976196289 209.14999389648438,-99.9209976196289 C216.02000427246094,-98.87999725341797 218.71400451660156,-90.41500091552734 213.70899963378906,-85.59500122070312 C213.70899963378906,-85.59500122070312 110.1709976196289,14.118000030517578 110.1709976196289,14.118000030517578 C108.18399810791016,16.031999588012695 107.26599884033203,18.801000595092773 107.71600341796875,21.523000717163086 C107.71600341796875,21.523000717163086 131.16000366210938,163.343994140625 131.16000366210938,163.343994140625 C132.29299926757812,170.19900512695312 125.072998046875,175.3780059814453 118.94300079345703,172.10800170898438 C118.94300079345703,172.10800170898438 -7.883999824523926,104.44999694824219 -7.883999824523926,104.44999694824219 C-10.317999839782715,103.1510009765625 -13.236000061035156,103.13400268554688 -15.685999870300293,104.40299987792969 C-15.685999870300293,104.40299987792969 -143.3209991455078,170.52499389648438 -143.3209991455078,170.52499389648438 C-149.49000549316406,173.7209930419922 -156.64599609375,168.45599365234375 -155.42999267578125,161.61500549316406 C-155.42999267578125,161.61500549316406 -130.2760009765625,20.086999893188477 -130.2760009765625,20.086999893188477 C-129.79299926757812,17.3700008392334 -130.67799377441406,14.590999603271484 -132.64199829101562,12.652999877929688 C-132.64199829101562,12.652999877929688 -234.968994140625,-88.3030014038086 -234.968994140625,-88.3030014038086 C-239.9149932861328,-93.18299865722656 -237.11900329589844,-101.61499786376953 -230.23699951171875,-102.572998046875 C-230.23699951171875,-102.572998046875 -87.86299896240234,-122.38500213623047 -87.86299896240234,-122.38500213623047 C-85.12999725341797,-122.76499938964844 -82.76000213623047,-124.46499633789062 -81.52400207519531,-126.93199920654297 C-81.52400207519531,-126.93199920654297 -17.1299991607666,-255.447998046875 -17.1299991607666,-255.447998046875 C-14.017000198364258,-261.6600036621094 -5.132999897003174,-261.6059875488281 -2.0959999561309814,-255.35699462890625z"></path></g></g><g transform="matrix(0,0,0,0,601.9285278320312,772.605712890625)" opacity="1" style="display: none;"><g opacity="1" transform="matrix(1,0,0,1,0,0)"><path fill="url(#__lottie_element_622)" fill-opacity="1" d=" M-2.0959999561309814,-255.35699462890625 C-2.0959999561309814,-255.35699462890625 60.74100112915039,-126.072998046875 60.74100112915039,-126.072998046875 C61.946998596191406,-123.59200286865234 64.2969970703125,-121.86299896240234 67.0250015258789,-121.44999694824219 C67.0250015258789,-121.44999694824219 209.14999389648438,-99.9209976196289 209.14999389648438,-99.9209976196289 C216.02000427246094,-98.87999725341797 218.71400451660156,-90.41500091552734 213.70899963378906,-85.59500122070312 C213.70899963378906,-85.59500122070312 110.1709976196289,14.118000030517578 110.1709976196289,14.118000030517578 C108.18399810791016,16.031999588012695 107.26599884033203,18.801000595092773 107.71600341796875,21.523000717163086 C107.71600341796875,21.523000717163086 131.16000366210938,163.343994140625 131.16000366210938,163.343994140625 C132.29299926757812,170.19900512695312 125.072998046875,175.3780059814453 118.94300079345703,172.10800170898438 C118.94300079345703,172.10800170898438 -7.883999824523926,104.44999694824219 -7.883999824523926,104.44999694824219 C-10.317999839782715,103.1510009765625 -13.236000061035156,103.13400268554688 -15.685999870300293,104.40299987792969 C-15.685999870300293,104.40299987792969 -143.3209991455078,170.52499389648438 -143.3209991455078,170.52499389648438 C-149.49000549316406,173.7209930419922 -156.64599609375,168.45599365234375 -155.42999267578125,161.61500549316406 C-155.42999267578125,161.61500549316406 -130.2760009765625,20.086999893188477 -130.2760009765625,20.086999893188477 C-129.79299926757812,17.3700008392334 -130.67799377441406,14.590999603271484 -132.64199829101562,12.652999877929688 C-132.64199829101562,12.652999877929688 -234.968994140625,-88.3030014038086 -234.968994140625,-88.3030014038086 C-239.9149932861328,-93.18299865722656 -237.11900329589844,-101.61499786376953 -230.23699951171875,-102.572998046875 C-230.23699951171875,-102.572998046875 -87.86299896240234,-122.38500213623047 -87.86299896240234,-122.38500213623047 C-85.12999725341797,-122.76499938964844 -82.76000213623047,-124.46499633789062 -81.52400207519531,-126.93199920654297 C-81.52400207519531,-126.93199920654297 -17.1299991607666,-255.447998046875 -17.1299991607666,-255.447998046875 C-14.017000198364258,-261.6600036621094 -5.132999897003174,-261.6059875488281 -2.0959999561309814,-255.35699462890625z"></path></g></g><g transform="matrix(0,0,0,0,601.7894897460938,765.9994506835938)" opacity="0.15" style="display: none;"><g opacity="1" transform="matrix(1,0,0,1,0,0)"><path fill="url(#__lottie_element_633)" fill-opacity="1" d=" M-2.0959999561309814,-255.35699462890625 C-2.0959999561309814,-255.35699462890625 60.74100112915039,-126.072998046875 60.74100112915039,-126.072998046875 C61.946998596191406,-123.59200286865234 64.2969970703125,-121.86299896240234 67.0250015258789,-121.44999694824219 C67.0250015258789,-121.44999694824219 209.14999389648438,-99.9209976196289 209.14999389648438,-99.9209976196289 C216.02000427246094,-98.87999725341797 218.71400451660156,-90.41500091552734 213.70899963378906,-85.59500122070312 C213.70899963378906,-85.59500122070312 110.1709976196289,14.118000030517578 110.1709976196289,14.118000030517578 C108.18399810791016,16.031999588012695 107.26599884033203,18.801000595092773 107.71600341796875,21.523000717163086 C107.71600341796875,21.523000717163086 131.16000366210938,163.343994140625 131.16000366210938,163.343994140625 C132.29299926757812,170.19900512695312 125.072998046875,175.3780059814453 118.94300079345703,172.10800170898438 C118.94300079345703,172.10800170898438 -7.883999824523926,104.44999694824219 -7.883999824523926,104.44999694824219 C-10.317999839782715,103.1510009765625 -13.236000061035156,103.13400268554688 -15.685999870300293,104.40299987792969 C-15.685999870300293,104.40299987792969 -143.3209991455078,170.52499389648438 -143.3209991455078,170.52499389648438 C-149.49000549316406,173.7209930419922 -156.64599609375,168.45599365234375 -155.42999267578125,161.61500549316406 C-155.42999267578125,161.61500549316406 -130.2760009765625,20.086999893188477 -130.2760009765625,20.086999893188477 C-129.79299926757812,17.3700008392334 -130.67799377441406,14.590999603271484 -132.64199829101562,12.652999877929688 C-132.64199829101562,12.652999877929688 -234.968994140625,-88.3030014038086 -234.968994140625,-88.3030014038086 C-239.9149932861328,-93.18299865722656 -237.11900329589844,-101.61499786376953 -230.23699951171875,-102.572998046875 C-230.23699951171875,-102.572998046875 -87.86299896240234,-122.38500213623047 -87.86299896240234,-122.38500213623047 C-85.12999725341797,-122.76499938964844 -82.76000213623047,-124.46499633789062 -81.52400207519531,-126.93199920654297 C-81.52400207519531,-126.93199920654297 -17.1299991607666,-255.447998046875 -17.1299991607666,-255.447998046875 C-14.017000198364258,-261.6600036621094 -5.132999897003174,-261.6059875488281 -2.0959999561309814,-255.35699462890625z"></path></g></g><g transform="matrix(0,0,0,0,601.7894897460938,765.9994506835938)" opacity="1" style="display: none;"><g opacity="1" transform="matrix(1,0,0,1,0,0)"><path fill="url(#__lottie_element_630)" fill-opacity="1" d=" M-2.0959999561309814,-255.35699462890625 C-2.0959999561309814,-255.35699462890625 60.74100112915039,-126.072998046875 60.74100112915039,-126.072998046875 C61.946998596191406,-123.59200286865234 64.2969970703125,-121.86299896240234 67.0250015258789,-121.44999694824219 C67.0250015258789,-121.44999694824219 209.14999389648438,-99.9209976196289 209.14999389648438,-99.9209976196289 C216.02000427246094,-98.87999725341797 218.71400451660156,-90.41500091552734 213.70899963378906,-85.59500122070312 C213.70899963378906,-85.59500122070312 110.1709976196289,14.118000030517578 110.1709976196289,14.118000030517578 C108.18399810791016,16.031999588012695 107.26599884033203,18.801000595092773 107.71600341796875,21.523000717163086 C107.71600341796875,21.523000717163086 131.16000366210938,163.343994140625 131.16000366210938,163.343994140625 C132.29299926757812,170.19900512695312 125.072998046875,175.3780059814453 118.94300079345703,172.10800170898438 C118.94300079345703,172.10800170898438 -7.883999824523926,104.44999694824219 -7.883999824523926,104.44999694824219 C-10.317999839782715,103.1510009765625 -13.236000061035156,103.13400268554688 -15.685999870300293,104.40299987792969 C-15.685999870300293,104.40299987792969 -143.3209991455078,170.52499389648438 -143.3209991455078,170.52499389648438 C-149.49000549316406,173.7209930419922 -156.64599609375,168.45599365234375 -155.42999267578125,161.61500549316406 C-155.42999267578125,161.61500549316406 -130.2760009765625,20.086999893188477 -130.2760009765625,20.086999893188477 C-129.79299926757812,17.3700008392334 -130.67799377441406,14.590999603271484 -132.64199829101562,12.652999877929688 C-132.64199829101562,12.652999877929688 -234.968994140625,-88.3030014038086 -234.968994140625,-88.3030014038086 C-239.9149932861328,-93.18299865722656 -237.11900329589844,-101.61499786376953 -230.23699951171875,-102.572998046875 C-230.23699951171875,-102.572998046875 -87.86299896240234,-122.38500213623047 -87.86299896240234,-122.38500213623047 C-85.12999725341797,-122.76499938964844 -82.76000213623047,-124.46499633789062 -81.52400207519531,-126.93199920654297 C-81.52400207519531,-126.93199920654297 -17.1299991607666,-255.447998046875 -17.1299991607666,-255.447998046875 C-14.017000198364258,-261.6600036621094 -5.132999897003174,-261.6059875488281 -2.0959999561309814,-255.35699462890625z"></path></g></g><g transform="matrix(0.004736407194286585,0,0,0.004736407194286585,601.9985961914062,775.9324951171875)" opacity="0.15" style="display: none;"><g opacity="1" transform="matrix(1,0,0,1,0,0)"><path fill="url(#__lottie_element_617)" fill-opacity="1" d=" M-2.0959999561309814,-255.35699462890625 C-2.0959999561309814,-255.35699462890625 60.74100112915039,-126.072998046875 60.74100112915039,-126.072998046875 C61.946998596191406,-123.59200286865234 64.2969970703125,-121.86299896240234 67.0250015258789,-121.44999694824219 C67.0250015258789,-121.44999694824219 209.14999389648438,-99.9209976196289 209.14999389648438,-99.9209976196289 C216.02000427246094,-98.87999725341797 218.71400451660156,-90.41500091552734 213.70899963378906,-85.59500122070312 C213.70899963378906,-85.59500122070312 110.1709976196289,14.118000030517578 110.1709976196289,14.118000030517578 C108.18399810791016,16.031999588012695 107.26599884033203,18.801000595092773 107.71600341796875,21.523000717163086 C107.71600341796875,21.523000717163086 131.16000366210938,163.343994140625 131.16000366210938,163.343994140625 C132.29299926757812,170.19900512695312 125.072998046875,175.3780059814453 118.94300079345703,172.10800170898438 C118.94300079345703,172.10800170898438 -7.883999824523926,104.44999694824219 -7.883999824523926,104.44999694824219 C-10.317999839782715,103.1510009765625 -13.236000061035156,103.13400268554688 -15.685999870300293,104.40299987792969 C-15.685999870300293,104.40299987792969 -143.3209991455078,170.52499389648438 -143.3209991455078,170.52499389648438 C-149.49000549316406,173.7209930419922 -156.64599609375,168.45599365234375 -155.42999267578125,161.61500549316406 C-155.42999267578125,161.61500549316406 -130.2760009765625,20.086999893188477 -130.2760009765625,20.086999893188477 C-129.79299926757812,17.3700008392334 -130.67799377441406,14.590999603271484 -132.64199829101562,12.652999877929688 C-132.64199829101562,12.652999877929688 -234.968994140625,-88.3030014038086 -234.968994140625,-88.3030014038086 C-239.9149932861328,-93.18299865722656 -237.11900329589844,-101.61499786376953 -230.23699951171875,-102.572998046875 C-230.23699951171875,-102.572998046875 -87.86299896240234,-122.38500213623047 -87.86299896240234,-122.38500213623047 C-85.12999725341797,-122.76499938964844 -82.76000213623047,-124.46499633789062 -81.52400207519531,-126.93199920654297 C-81.52400207519531,-126.93199920654297 -17.1299991607666,-255.447998046875 -17.1299991607666,-255.447998046875 C-14.017000198364258,-261.6600036621094 -5.132999897003174,-261.6059875488281 -2.0959999561309814,-255.35699462890625z"></path></g></g><g mask="url(#__lottie_element_568_1)" style="display: none;"><g transform="matrix(0.893951416015625,-0.32148221135139465,0.32148221135139465,0.893951416015625,600,750)" opacity="1"><g opacity="1" transform="matrix(1,0,0,1,0,0)"><path fill="url(#__lottie_element_572)" fill-opacity="1" d=" M-2.0959999561309814,-255.35699462890625 C-2.0959999561309814,-255.35699462890625 60.74100112915039,-126.072998046875 60.74100112915039,-126.072998046875 C61.946998596191406,-123.59200286865234 64.2969970703125,-121.86299896240234 67.0250015258789,-121.44999694824219 C67.0250015258789,-121.44999694824219 209.14999389648438,-99.9209976196289 209.14999389648438,-99.9209976196289 C216.02000427246094,-98.87999725341797 218.71400451660156,-90.41500091552734 213.70899963378906,-85.59500122070312 C213.70899963378906,-85.59500122070312 110.1709976196289,14.118000030517578 110.1709976196289,14.118000030517578 C108.18399810791016,16.031999588012695 107.26599884033203,18.801000595092773 107.71600341796875,21.523000717163086 C107.71600341796875,21.523000717163086 131.16000366210938,163.343994140625 131.16000366210938,163.343994140625 C132.29299926757812,170.19900512695312 125.072998046875,175.3780059814453 118.94300079345703,172.10800170898438 C118.94300079345703,172.10800170898438 -7.883999824523926,104.44999694824219 -7.883999824523926,104.44999694824219 C-10.317999839782715,103.1510009765625 -13.236000061035156,103.13400268554688 -15.685999870300293,104.40299987792969 C-15.685999870300293,104.40299987792969 -143.3209991455078,170.52499389648438 -143.3209991455078,170.52499389648438 C-149.49000549316406,173.7209930419922 -156.64599609375,168.45599365234375 -155.42999267578125,161.61500549316406 C-155.42999267578125,161.61500549316406 -130.2760009765625,20.086999893188477 -130.2760009765625,20.086999893188477 C-129.79299926757812,17.3700008392334 -130.67799377441406,14.590999603271484 -132.64199829101562,12.652999877929688 C-132.64199829101562,12.652999877929688 -234.968994140625,-88.3030014038086 -234.968994140625,-88.3030014038086 C-239.9149932861328,-93.18299865722656 -237.11900329589844,-101.61499786376953 -230.23699951171875,-102.572998046875 C-230.23699951171875,-102.572998046875 -87.86299896240234,-122.38500213623047 -87.86299896240234,-122.38500213623047 C-85.12999725341797,-122.76499938964844 -82.76000213623047,-124.46499633789062 -81.52400207519531,-126.93199920654297 C-81.52400207519531,-126.93199920654297 -17.1299991607666,-255.447998046875 -17.1299991607666,-255.447998046875 C-14.017000198364258,-261.6600036621094 -5.132999897003174,-261.6059875488281 -2.0959999561309814,-255.35699462890625z"></path></g></g></g><g transform="matrix(0.7709664702415466,-0.6368732452392578,0.6368732452392578,0.7709664702415466,600,750)" opacity="1" style="display: none;"><g opacity="1" transform="matrix(1,0,0,1,0,0)"><path stroke-linecap="butt" stroke-linejoin="miter" fill-opacity="0" stroke-miterlimit="4" stroke="rgb(221,195,253)" stroke-opacity="1" stroke-width="2" d=" M2.816999912261963,22.349000930786133 C2.8359999656677246,22.292999267578125 2.8550000190734863,22.23699951171875 2.874000072479248,22.180999755859375"></path></g></g><g transform="matrix(0.7672613859176636,-0.6413321495056152,0.6413321495056152,0.7672613859176636,600,750)" opacity="1" style="display: none;"><g opacity="1" transform="matrix(1,0,0,1,0,0)"><path stroke-linecap="butt" stroke-linejoin="miter" fill-opacity="0" stroke-miterlimit="4" stroke="rgb(48,49,217)" stroke-opacity="1" stroke-width="2" d=" M2.874000072479248,22.180999755859375 C2.8929998874664307,22.125999450683594 2.9119999408721924,22.06999969482422 2.930999994277954,22.013999938964844"></path></g></g><g transform="matrix(0,0,0,0,798.9999389648438,926.9998779296875)" opacity="0.3" style="display: none;"><g opacity="1" transform="matrix(1,0,0,1,208.99400329589844,180.99400329589844)"><path fill="rgb(48,49,217)" fill-opacity="1" d=" M0,-93.99400329589844 C51.87528991699219,-93.99400329589844 93.99400329589844,-51.87528991699219 93.99400329589844,0 C93.99400329589844,51.87528991699219 51.87528991699219,93.99400329589844 0,93.99400329589844 C-51.87528991699219,93.99400329589844 -93.99400329589844,51.87528991699219 -93.99400329589844,0 C-93.99400329589844,-51.87528991699219 -51.87528991699219,-93.99400329589844 0,-93.99400329589844z"></path></g></g><g transform="matrix(0,0,0,0,798.9999389648438,926.9998779296875)" opacity="1" style="display: none;"><g opacity="1" transform="matrix(1,0,0,1,208.99400329589844,180.99400329589844)"><path fill="rgb(45,222,152)" fill-opacity="1" d=" M0,-93.99400329589844 C51.87528991699219,-93.99400329589844 93.99400329589844,-51.87528991699219 93.99400329589844,0 C93.99400329589844,51.87528991699219 51.87528991699219,93.99400329589844 0,93.99400329589844 C-51.87528991699219,93.99400329589844 -93.99400329589844,51.87528991699219 -93.99400329589844,0 C-93.99400329589844,-51.87528991699219 -51.87528991699219,-93.99400329589844 0,-93.99400329589844z"></path></g></g><g transform="matrix(0.6499999761581421,0,0,0.6499999761581421,659.2500610351562,813.25)" opacity="1" style="display: none;"><g opacity="1" transform="matrix(1,0,0,1,0,0)"><path stroke-linecap="butt" stroke-linejoin="miter" fill-opacity="0" stroke-miterlimit="4" stroke="rgb(255,255,255)" stroke-opacity="1" stroke-width="8" d="M0 0"></path></g></g><g transform="matrix(0.6499999761581421,0,0,0.6499999761581421,663.1539306640625,809.3538818359375)" opacity="1" style="display: none;"><g opacity="1" transform="matrix(1,0,0,1,208.99400329589844,180.99400329589844)"><path stroke-linecap="butt" stroke-linejoin="miter" fill-opacity="0" stroke-miterlimit="4" stroke="rgb(56,48,227)" stroke-opacity="1" stroke-width="3" d="M0 0"></path></g></g><g transform="matrix(0.6819983720779419,-0.7313537001609802,0.7313537001609802,0.6819983720779419,618.9794311523438,710.4226684570312)" opacity="1" style="display: none;"><g opacity="1" transform="matrix(1,0,0,1,-41.888999938964844,13.111000061035156)"><path stroke-linecap="butt" stroke-linejoin="miter" fill-opacity="0" stroke-miterlimit="4" stroke="rgb(221,195,252)" stroke-opacity="1" stroke-width="2" d="M0 0"></path></g></g><g transform="matrix(0.6819983720779419,-0.7313537001609802,0.7313537001609802,0.6819983720779419,618.9794311523438,710.4226684570312)" opacity="1" style="display: none;"><g opacity="1" transform="matrix(1,0,0,1,-41.888999938964844,13.111000061035156)"><path stroke-linecap="butt" stroke-linejoin="miter" fill-opacity="0" stroke-miterlimit="4" stroke="rgb(221,195,252)" stroke-opacity="1" stroke-width="2" d="M0 0"></path></g></g></g></svg>