<?xml version="1.0" encoding="UTF-8"?>
<svg id="Layer_2" data-name="Layer 2" xmlns="http://www.w3.org/2000/svg" viewBox="0 0 516.6929 460.5509">
  <defs>
    <style>
      .cls-1 {
        fill: none;
        stroke: #fff;
        stroke-width: 10px;
      }
    </style>
  </defs>
  <g id="Layer_1-2" data-name="Layer 1">
    <g id="Outline-Maps-of-the-countries-with-national-flags">
      <g id="Maps-Outline-with-Flags">
        <g id="malta">
          <g id="map">
            <path id="path-1" class="cls-1" d="m486.3558,308.27l19.9831,32.6642,5.2642,39.823-7.091,25.7459-18.1571-10.085-20.5199,22.8895-6.5533,13.732v20.097l-21.1654-8.556-5.8019-3.5815-45.4458-4.5107-63.6021-19.9675-56.7265-31.4504-24.3882-38.6931-4.1897-4.9122-18.694-10.1572-4.0828-7.7678v-50.5991l-5.8019-57.5962-7.521-25.9168-13.8589-16.8158,16.7603-15.0893,16.8672-10.3704,18.4794-6.0497,20.8431-1.9944v12.1002l-12.0329,2.2599-7.7356,3.9889-17.0826,15.1557,104.4283,12.0968,21.9168,8.7725,44.3713,38.2078,38.4625,13.7519,6.661,12.6212,1.5037,16.2732-.1077,16.3371,7.091,1.3946,37.9265,16.2018ZM101.6256,5.1366l34.272,12.6452,42.5445,27.4151,25.6773,27.3429-16.1157,11.7733-23.2059.9308-35.4543,16.2284-23.2059,5.1877-24.4959-1.8617-27.1818-7.4484-25.9987-11.2415-21.4876-13.9685,4.0828-17.6288-4.835-17.8312-.9668-13.8407,15.6857-5.4565L101.6256,5.1366Z"/>
          </g>
        </g>
      </g>
    </g>
  </g>
</svg>