<svg width="156" height="25" viewBox="0 0 156 25" fill="none" xmlns="http://www.w3.org/2000/svg">
<path d="M0.992 19.8143V3.01427H4.208L11.36 14.8703H9.656L16.688 3.01427H19.88L19.928 19.8143H16.28L16.256 8.60627H16.928L11.312 18.0383H9.56L3.824 8.60627H4.64V19.8143H0.992ZM30.0579 20.0063C28.5859 20.0063 27.2899 19.7183 26.1699 19.1423C25.0659 18.5663 24.2099 17.7823 23.6019 16.7903C22.9939 15.7823 22.6899 14.6383 22.6899 13.3583C22.6899 12.0623 22.9859 10.9183 23.5779 9.92627C24.1859 8.91827 25.0099 8.13427 26.0499 7.57427C27.0899 6.99827 28.2659 6.71027 29.5779 6.71027C30.8419 6.71027 31.9779 6.98227 32.9859 7.52627C34.0099 8.05427 34.8179 8.82227 35.4099 9.83027C36.0019 10.8223 36.2979 12.0143 36.2979 13.4063C36.2979 13.5503 36.2899 13.7183 36.2739 13.9103C36.2579 14.0863 36.2419 14.2543 36.2259 14.4143H25.7379V12.2303H34.2579L32.8179 12.8783C32.8179 12.2063 32.6819 11.6223 32.4099 11.1263C32.1379 10.6303 31.7619 10.2463 31.2819 9.97427C30.8019 9.68627 30.2419 9.54227 29.6019 9.54227C28.9619 9.54227 28.3939 9.68627 27.8979 9.97427C27.4179 10.2463 27.0419 10.6383 26.7699 11.1503C26.4979 11.6463 26.3619 12.2383 26.3619 12.9263V13.5023C26.3619 14.2063 26.5139 14.8303 26.8179 15.3743C27.1379 15.9023 27.5779 16.3103 28.1379 16.5983C28.7139 16.8703 29.3859 17.0063 30.1539 17.0063C30.8419 17.0063 31.4419 16.9023 31.9539 16.6943C32.4819 16.4863 32.9619 16.1743 33.3939 15.7583L35.3859 17.9183C34.7939 18.5903 34.0499 19.1103 33.1539 19.4783C32.2579 19.8303 31.2259 20.0063 30.0579 20.0063ZM44.8625 24.6623C43.6465 24.6623 42.4705 24.5103 41.3345 24.2063C40.2145 23.9183 39.2785 23.4783 38.5265 22.8863L40.0145 20.1983C40.5585 20.6463 41.2465 20.9983 42.0785 21.2543C42.9265 21.5263 43.7585 21.6623 44.5745 21.6623C45.9025 21.6623 46.8625 21.3663 47.4545 20.7743C48.0625 20.1823 48.3665 19.3023 48.3665 18.1343V16.1903L48.6065 12.9503L48.5585 9.68627V6.90227H52.1105V17.6543C52.1105 20.0543 51.4865 21.8223 50.2385 22.9583C48.9905 24.0943 47.1985 24.6623 44.8625 24.6623ZM44.2865 19.1903C43.0865 19.1903 41.9985 18.9343 41.0225 18.4223C40.0625 17.8943 39.2865 17.1663 38.6945 16.2383C38.1185 15.2943 37.8305 14.1983 37.8305 12.9503C37.8305 11.6863 38.1185 10.5903 38.6945 9.66227C39.2865 8.71827 40.0625 7.99027 41.0225 7.47827C41.9985 6.96627 43.0865 6.71027 44.2865 6.71027C45.3745 6.71027 46.3345 6.93427 47.1665 7.38227C47.9985 7.81427 48.6465 8.49427 49.1105 9.42227C49.5745 10.3343 49.8065 11.5103 49.8065 12.9503C49.8065 14.3743 49.5745 15.5503 49.1105 16.4783C48.6465 17.3903 47.9985 18.0703 47.1665 18.5183C46.3345 18.9663 45.3745 19.1903 44.2865 19.1903ZM45.0305 16.1183C45.6865 16.1183 46.2705 15.9903 46.7825 15.7343C47.2945 15.4623 47.6945 15.0863 47.9825 14.6063C48.2705 14.1263 48.4145 13.5743 48.4145 12.9503C48.4145 12.3103 48.2705 11.7583 47.9825 11.2943C47.6945 10.8143 47.2945 10.4463 46.7825 10.1903C46.2705 9.91827 45.6865 9.78227 45.0305 9.78227C44.3745 9.78227 43.7905 9.91827 43.2785 10.1903C42.7665 10.4463 42.3585 10.8143 42.0545 11.2943C41.7665 11.7583 41.6225 12.3103 41.6225 12.9503C41.6225 13.5743 41.7665 14.1263 42.0545 14.6063C42.3585 15.0863 42.7665 15.4623 43.2785 15.7343C43.7905 15.9903 44.3745 16.1183 45.0305 16.1183ZM63.5152 19.8143V17.2943L63.2752 16.7423V12.2303C63.2752 11.4303 63.0272 10.8063 62.5312 10.3583C62.0512 9.91027 61.3072 9.68627 60.2992 9.68627C59.6112 9.68627 58.9312 9.79827 58.2592 10.0223C57.6032 10.2303 57.0432 10.5183 56.5792 10.8863L55.2352 8.27027C55.9392 7.77427 56.7872 7.39027 57.7792 7.11827C58.7712 6.84627 59.7792 6.71027 60.8032 6.71027C62.7712 6.71027 64.2992 7.17427 65.3872 8.10227C66.4752 9.03027 67.0192 10.4783 67.0192 12.4463V19.8143H63.5152ZM59.5792 20.0063C58.5712 20.0063 57.7072 19.8383 56.9872 19.5023C56.2672 19.1503 55.7152 18.6783 55.3312 18.0863C54.9472 17.4943 54.7552 16.8303 54.7552 16.0943C54.7552 15.3263 54.9392 14.6543 55.3072 14.0783C55.6912 13.5023 56.2912 13.0543 57.1072 12.7343C57.9232 12.3983 58.9872 12.2303 60.2992 12.2303H63.7312V14.4143H60.7072C59.8272 14.4143 59.2192 14.5583 58.8832 14.8463C58.5632 15.1343 58.4032 15.4943 58.4032 15.9263C58.4032 16.4063 58.5872 16.7903 58.9552 17.0783C59.3392 17.3503 59.8592 17.4863 60.5152 17.4863C61.1392 17.4863 61.6992 17.3423 62.1952 17.0543C62.6912 16.7503 63.0512 16.3103 63.2752 15.7343L63.8512 17.4623C63.5792 18.2943 63.0832 18.9263 62.3632 19.3583C61.6432 19.7903 60.7152 20.0063 59.5792 20.0063ZM69.3757 19.8143L72.7357 3.01427H75.9037L80.6797 14.9183L78.9997 14.8943L88.3117 3.01427H91.6477L88.3117 19.8143H84.6637L86.8957 8.55827H87.6397L80.2237 18.0383H78.4957L74.5357 8.53427L75.2557 8.60627L73.0237 19.8143H69.3757ZM99.4736 20.0063C98.0976 20.0063 96.8736 19.7183 95.8016 19.1423C94.7456 18.5663 93.9056 17.7823 93.2816 16.7903C92.6736 15.7823 92.3696 14.6383 92.3696 13.3583C92.3696 12.0623 92.6736 10.9183 93.2816 9.92627C93.9056 8.91827 94.7456 8.13427 95.8016 7.57427C96.8736 6.99827 98.0976 6.71027 99.4736 6.71027C100.834 6.71027 102.05 6.99827 103.122 7.57427C104.194 8.13427 105.034 8.91027 105.642 9.90227C106.25 10.8943 106.554 12.0463 106.554 13.3583C106.554 14.6383 106.25 15.7823 105.642 16.7903C105.034 17.7823 104.194 18.5663 103.122 19.1423C102.05 19.7183 100.834 20.0063 99.4736 20.0063ZM99.4736 16.9343C100.098 16.9343 100.658 16.7903 101.154 16.5023C101.65 16.2143 102.042 15.8063 102.33 15.2783C102.618 14.7343 102.762 14.0943 102.762 13.3583C102.762 12.6063 102.618 11.9663 102.33 11.4383C102.042 10.9103 101.65 10.5023 101.154 10.2143C100.658 9.92627 100.098 9.78227 99.4736 9.78227C98.8496 9.78227 98.2896 9.92627 97.7936 10.2143C97.2976 10.5023 96.8976 10.9103 96.5936 11.4383C96.3056 11.9663 96.1616 12.6063 96.1616 13.3583C96.1616 14.0943 96.3056 14.7343 96.5936 15.2783C96.8976 15.8063 97.2976 16.2143 97.7936 16.5023C98.2896 16.7903 98.8496 16.9343 99.4736 16.9343ZM114.336 20.0063C112.816 20.0063 111.632 19.6223 110.784 18.8543C109.936 18.0703 109.512 16.9103 109.512 15.3743V4.04627H113.256V15.3263C113.256 15.8703 113.4 16.2943 113.688 16.5983C113.976 16.8863 114.368 17.0303 114.864 17.0303C115.456 17.0303 115.96 16.8703 116.376 16.5503L117.384 19.1903C117 19.4623 116.536 19.6703 115.992 19.8143C115.464 19.9423 114.912 20.0063 114.336 20.0063ZM107.52 10.0703V7.19027H116.472V10.0703H107.52ZM119.486 19.8143V6.90227H123.23V19.8143H119.486ZM121.358 5.10227C120.67 5.10227 120.11 4.90227 119.678 4.50227C119.246 4.10227 119.03 3.60627 119.03 3.01427C119.03 2.42227 119.246 1.92627 119.678 1.52627C120.11 1.12627 120.67 0.926269 121.358 0.926269C122.046 0.926269 122.606 1.11827 123.038 1.50227C123.47 1.87027 123.686 2.35027 123.686 2.94227C123.686 3.56627 123.47 4.08627 123.038 4.50227C122.622 4.90227 122.062 5.10227 121.358 5.10227ZM132.849 20.0063C131.473 20.0063 130.249 19.7183 129.177 19.1423C128.121 18.5663 127.281 17.7823 126.657 16.7903C126.049 15.7823 125.745 14.6383 125.745 13.3583C125.745 12.0623 126.049 10.9183 126.657 9.92627C127.281 8.91827 128.121 8.13427 129.177 7.57427C130.249 6.99827 131.473 6.71027 132.849 6.71027C134.209 6.71027 135.425 6.99827 136.497 7.57427C137.569 8.13427 138.409 8.91027 139.017 9.90227C139.625 10.8943 139.929 12.0463 139.929 13.3583C139.929 14.6383 139.625 15.7823 139.017 16.7903C138.409 17.7823 137.569 18.5663 136.497 19.1423C135.425 19.7183 134.209 20.0063 132.849 20.0063ZM132.849 16.9343C133.473 16.9343 134.033 16.7903 134.529 16.5023C135.025 16.2143 135.417 15.8063 135.705 15.2783C135.993 14.7343 136.137 14.0943 136.137 13.3583C136.137 12.6063 135.993 11.9663 135.705 11.4383C135.417 10.9103 135.025 10.5023 134.529 10.2143C134.033 9.92627 133.473 9.78227 132.849 9.78227C132.225 9.78227 131.665 9.92627 131.169 10.2143C130.673 10.5023 130.273 10.9103 129.969 11.4383C129.681 11.9663 129.537 12.6063 129.537 13.3583C129.537 14.0943 129.681 14.7343 129.969 15.2783C130.273 15.8063 130.673 16.2143 131.169 16.5023C131.665 16.7903 132.225 16.9343 132.849 16.9343ZM150.279 6.71027C151.303 6.71027 152.215 6.91827 153.015 7.33427C153.831 7.73427 154.471 8.35827 154.935 9.20627C155.399 10.0383 155.631 11.1103 155.631 12.4223V19.8143H151.887V12.9983C151.887 11.9583 151.655 11.1903 151.191 10.6943C150.743 10.1983 150.103 9.95027 149.271 9.95027C148.679 9.95027 148.143 10.0783 147.663 10.3343C147.199 10.5743 146.831 10.9503 146.559 11.4623C146.303 11.9743 146.175 12.6303 146.175 13.4303V19.8143H142.431V6.90227H146.007V10.4783L145.335 9.39827C145.799 8.53427 146.463 7.87027 147.327 7.40627C148.191 6.94227 149.175 6.71027 150.279 6.71027Z" fill="white"/>
</svg>
