<?xml version="1.0" encoding="utf-8"?>
<!-- Generator: Adobe Illustrator 26.5.0, SVG Export Plug-In . SVG Version: 6.00 Build 0)  -->
<svg version="1.1" xmlns="http://www.w3.org/2000/svg" xmlns:xlink="http://www.w3.org/1999/xlink" x="0px" y="0px"
	 viewBox="0 0 6412.7 1619.6" style="enable-background:new 0 0 6412.7 1619.6;" xml:space="preserve">
<style type="text/css">
	.st0{display:none;}
	.st1{fill:#E8E8E8;}
	.st2{display:inline;}
	.st3{fill:#002E6A;}
	.st4{display:inline;fill:#002E6A;}
	.st5{fill:#FFFFFF;}
	.st6{display:inline;fill:#151541;}
</style>
<g id="Layer_2" class="st0">
	<rect x="-2832.3" y="-2664.5" class="st1" width="12040" height="6904"/>
	<g class="st2">
		<path class="st3" d="M2688.4,548.1v536.2h-2.8l-360.5-325.5l2.1,304.5h-102.9V527.8h4.2l359.8,330.4l-2.1-310.1H2688.4z"/>
		<path class="st3" d="M3239.3,919.8c9.8,14.9,22.9,27.1,39.2,36.4c16.3,9.3,33.8,14,52.5,14c20.1,0,38.5-4.7,55.3-14
			c16.8-9.3,30-21.5,39.5-36.4c9.6-14.9,14.3-30.6,14.3-46.9V548.1h100.1V875c0,36.9-9.3,70.1-28,99.8c-18.7,29.6-44,52.7-76,69.3
			c-32,16.6-67.1,24.9-105.3,24.9c-38.3,0-73.3-8.3-105-24.9c-31.7-16.6-56.8-39.7-75.2-69.3c-18.4-29.6-27.7-62.9-27.7-99.8V548.1
			h101.5v324.8C3224.6,889.2,3229.5,904.8,3239.3,919.8z"/>
		<path class="st3" d="M4087.3,675.5c23.6-40.6,55.5-72.9,95.9-97c40.4-24,84.1-36,131.2-36c47.1,0,90.9,12,131.2,36
			c40.4,24,72.6,56.4,96.6,97c24,40.6,36.1,84.2,36.1,130.9c0,47.6-12,91.5-36.1,131.6c-24,40.1-56.2,72-96.6,95.5
			c-40.4,23.6-84.1,35.4-131.2,35.4c-47.6,0-91.5-11.8-131.6-35.4c-40.1-23.6-72-55.4-95.6-95.5c-23.6-40.1-35.3-84-35.3-131.6
			C4052,759.7,4063.8,716.1,4087.3,675.5z M4178.3,889c14.2,25.2,33.6,45.1,58.1,59.8c24.5,14.7,51.7,22.1,81.5,22.1
			c28.9,0,55.3-7.4,79.1-22.1c23.8-14.7,42.5-34.5,56-59.5c13.5-25,20.3-52.6,20.3-82.9c0-30.8-7-58.8-21-84
			c-14-25.2-33-45.1-57.1-59.9c-24-14.7-50.8-22-80.1-22c-29.4,0-56.1,7.3-80.2,22c-24,14.7-43,34.6-57,59.9c-14,25.2-21,53.2-21,84
			C4157,836.2,4164.1,863.8,4178.3,889z"/>
		<path class="st3" d="M5123,548.1v536.2h-2.8l-360.5-325.5l2.1,304.5h-102.9V527.8h4.2l359.8,330.4l-2.1-310.1H5123z"/>
		<path class="st3" d="M5926.6,1063.3l-115.5-177.8L5711,1063.3h-126l168.7-266L5592,548.1h129.5l111.3,170.8l96.6-170.8h123.2
			l-163.8,256.2l168.7,259H5926.6z"/>
	</g>
	<g class="st2">
		<rect x="2750.2" y="756" class="st3" width="288.1" height="98"/>
		<rect x="2750.2" y="965.3" class="st3" width="299.4" height="98"/>
	</g>
	<rect x="2688.4" y="548.1" class="st4" width="351.4" height="97"/>
	<path class="st4" d="M3918.3,876.4c27.5-15.9,48-37.7,61.2-65.5c13.3-27.8,20-57.5,20-89.2c0-53.7-17.6-96-52.9-127
		c-35.2-31-84.8-46.6-148.8-46.6h-156.1v97.7l131,0.3h43.3c30.8,0,51.6,8.5,62.3,25.6c10.7,17,16.1,34.9,16.1,53.5
		c0,18.7-6.3,36.1-18.9,52.1c-12.6,16.1-32.7,24.2-60.2,24.2h-42.6l-172.1,0.3v261.5h101.5V899.5h109l108.5,163.8H4038L3918.3,876.4
		z"/>
	<rect x="3529.6" y="548" class="st4" width="163.5" height="97.9"/>
	<g class="st2">
		<polygon class="st3" points="5336.5,646.1 5557,646.1 5557,548.1 5235,548.1 5235,646.1 		"/>
		<polygon class="st3" points="5209,646.1 5429.5,646.1 5429.5,548.1 5107.5,548.1 5107.5,646.1 		"/>
		<polygon class="st3" points="5184.2,763.5 5184.2,1063.3 5285.7,1063.3 5285.7,861 5527.6,861 5527.6,763.5 		"/>
	</g>
</g>
<g id="Layer_1">
	<path id="XMLID_1881_" class="st5" d="M1133.1,88.1v433.1L506.9,88.1H70V541l1254.3,858.7H1107L318.5,855.6v544.1H194.3V769.9
		L70,684.1v839.8h372.7v-433.1l626.2,433.1h436.9V1071L251.5,212.3h217.3l788.5,544.1V212.3h124.2v629.8l124.2,85.7V88.1H1133.1z
		 M1381.6,1136.3V1295L194.3,475.7V317L1381.6,1136.3z"/>
	<g id="XMLID_1_">
		<path id="XMLID_2104_" class="st5" d="M2284.3,1089V765c0-83.3-55.4-120.6-110.2-120.6c-58,0-119.7,42.3-119.7,120.6v324h-131
			V536.6h124.4V604l12.6-14.8c36.3-42.9,89.8-67.5,147-67.5c100.2,0,208,76.1,208,243.3v324H2284.3z"/>
		<path id="XMLID_2106_" class="st5" d="M2816,1101.6c-144.5,0-290.7-99-290.7-288.2c0-160.5,127.1-291.1,283.4-291.1
			c80.8,0,153.3,30.8,204.2,86.6c56.9,62.5,82.5,150,74.3,253.4h-430.8l2.4,9c23.4,86.9,95.1,117.7,149.4,117.7
			c52.7,0,99.6-25.3,123.5-66.2H3073C3030.9,1054.4,2913.4,1101.6,2816,1101.6z M2808.7,635.3c-54.1,0-121.3,29.7-147.7,113.2
			l-2.9,9.3h300.7l-2.4-9C2935.5,670.4,2867.2,635.3,2808.7,635.3z"/>
		<path id="XMLID_2100_" class="st5" d="M3398.1,1102.9c-101.9,0-211.5-75.8-211.5-242.2v-324h131v324
			c0,82.3,55.4,119.2,110.4,119.2c57.9,0,119.5-41.8,119.5-119.2v-324h131V1089h-124.4v-63.7l-12.5,14.5
			C3506.9,1079.9,3454.6,1102.9,3398.1,1102.9z"/>
		<path id="XMLID_2101_" class="st5" d="M4470.2,1102.2c-155.8,0-277.9-126.9-277.9-288.8c0-163.2,122.1-291.1,277.9-291.1
			c156.4,0,278.9,127.9,278.9,291.1C4749.1,975.4,4626.6,1102.2,4470.2,1102.2z M4470.2,641.2c-96.2,0-146.6,86.8-146.6,172.6
			c0,81.7,45.9,169.5,146.6,169.5c45.6,0,83.9-18.5,110.5-53.4c23.3-30.5,36.1-71.7,36.1-116
			C4616.7,728.1,4566.4,641.2,4470.2,641.2z"/>
		<path id="XMLID_2098_" class="st5" d="M5223.3,1089V765c0-83.3-55.3-120.6-110.2-120.6c-58,0-119.7,42.3-119.7,120.6v324h-131
			V536.6h124.4V604l12.6-14.8c36.3-42.9,89.9-67.5,147-67.5c100.2,0,208,76.1,208,243.3v324H5223.3z"/>
		<path id="XMLID_2097_" class="st5" d="M6147.5,1091.2l-121.7-199l-122.8,199h-146.6l193.2-285.5l-103.4-152.3h-206.9V1089h-131
			V653.3h-68.2V538.8h68.1l0.1-7c2.1-141.4,84.8-232.8,210.7-232.8c9.1,0,18.6,0.5,28.1,1.4v122.5c-3-0.1-5.9-0.2-8.8-0.2
			c-65.7,0-99.1,36.7-99.1,109v7.1h129.1l0,0h147.7l109.7,179.3l108.5-179.3h147.6l-181.1,266.9l193.2,285.5H6147.5z"/>
	</g>
	<path class="st5" d="M4104.2,522.8c-56.7,0-107.3,23.9-142.3,67.3l-12.7,15.7v-69.1h-124.4v371.9v179.7v0.7h130.4l0-131.2
		c-1.1-182.8-1-227,38.8-268.2c25.1-26.7,60.3-39.7,107.7-39.7c9.5,0,19.4,0.5,30.1,1.5V524.7
		C4122.6,523.4,4113.3,522.8,4104.2,522.8z"/>
	<g class="st0">
		<path class="st2" d="M2161.4,1074.8V603H2286l98,172.9c28,49.7,56,108.5,77,161.7h2.1c-7-62.3-9.1-126-9.1-196.7V603h98v471.8
			h-112l-100.8-182c-28-50.4-58.8-111.3-81.9-166.6l-2.1,0.7c2.8,62.3,4.2,128.8,4.2,205.8v142.1H2161.4z"/>
		<g class="st2">
			<rect x="2659.1" y="788.5" width="173.6" height="86.8"/>
			<rect x="2659.1" y="875.3" width="0" height="112"/>
			<rect x="2659.1" y="690.5" width="0" height="98"/>
			<rect x="2659.1" y="987.3" width="193.9" height="87.5"/>
			<rect x="2552" y="603" width="291.2" height="86.5"/>
		</g>
		<path class="st2" d="M3032.2,603v271.6c0,81.2,30.8,122.5,85.4,122.5c56,0,86.8-39.2,86.8-122.5V603h106.4v264.6
			c0,145.6-73.5,214.9-196.7,214.9c-119,0-189-65.8-189-216.3V603H3032.2z"/>
		<g class="st2">
			<path d="M3721,941.8c-11.9-43.4-30.1-74.9-63-88.2v-2.1c40.6-14.7,83.3-56,83.3-116.2c0-43.4-15.4-76.3-43.4-98.7
				c-33.6-26.6-82.6-34.1-152.6-34.1c-56.7,0-107.8,1.2-142.1,6.8v72.2c0,0,131-0.3,154,1.1c48.6,2.9,78.4,18.4,78.4,61.8
				c0,41.3-31.5,67.9-84.7,67.9h-42V812h-105.7v262.8h105.7V889.3h32.2c43.4,0.7,63.7,16.8,76.3,75.6c14,58.1,25.2,96.6,32.9,109.9
				h109.2C3750.4,1056.6,3735.7,995,3721,941.8z"/>
			<rect x="3295.7" y="603" width="210" height="78.5"/>
		</g>
		<path class="st2" d="M4247.4,834c0,154.7-93.8,248.5-231.7,248.5c-140,0-221.9-105.7-221.9-240.1c0-141.4,90.3-247.1,229.6-247.1
			C4168.3,595.3,4247.4,703.8,4247.4,834z M3906.5,840.3c0,92.4,43.4,157.5,114.8,157.5c72.1,0,113.4-68.6,113.4-160.3
			c0-84.7-40.6-157.5-114.1-157.5C3948.5,680,3906.5,748.6,3906.5,840.3z"/>
		<path class="st2" d="M4317.4,1074.8V603H4442l98,172.9c28,49.7,56,108.5,77,161.7h2.1c-7-62.3-9.1-126-9.1-196.7V603h98v471.8
			h-112l-100.8-182c-28-50.4-58.8-111.3-81.9-166.6l-2.1,0.7c2.8,62.3,4.2,128.8,4.2,205.8v142.1H4317.4z"/>
		<path class="st2" d="M5417.8,1074.8l-42.7-85.4c-17.5-32.9-28.7-57.4-42-84.7h-1.4c-9.8,27.3-21.7,51.8-36.4,84.7l-39.2,85.4
			h-121.8l136.5-238.7L5139.2,603h122.5l41.3,86.1c14,28.7,24.5,51.8,35.7,78.4h1.4c11.2-30.1,20.3-51.1,32.2-78.4l39.9-86.1H5534
			l-133,230.3l140,241.5H5417.8z"/>
	</g>
	<g class="st0">
		<rect x="4800.4" y="603" class="st2" width="288.4" height="86.5"/>
		<rect x="4638.4" y="603" class="st2" width="288.4" height="86.5"/>
		<polygon class="st2" points="4800.4,798.8 4800.4,1074.8 4907.5,1074.8 4907.5,885.1 5076.9,885.1 5076.9,798.8 		"/>
	</g>
	<g class="st0">
		<polygon class="st6" points="2696.1,585.9 2697.5,928.9 2331.4,568.4 2327.2,568.4 2327.2,1095.5 2409.8,1095.5 2407.7,757.4 
			2775.2,1113.7 2777.3,1113.7 2777.3,664.2 3113.2,664.2 3113.2,585.9 2777.3,585.9 		"/>
		<path class="st6" d="M4522.3,616c-39.9-23.8-83.2-35.7-129.8-35.7c-47.1,0-90.7,11.9-130.6,35.7c-39.9,23.8-71.5,55.6-94.8,95.5
			c-23.3,39.9-35,83.2-35,129.9c0,47.6,11.7,91.2,35,130.9c23.3,39.7,55,71,94.8,94.2c39.9,23.1,83.4,34.6,130.6,34.6
			c46.7,0,90.1-11.7,130.2-35c40.1-23.3,72-54.8,95.6-94.5c23.6-39.7,35.3-83.1,35.3-130.2c0-46.2-11.9-89.4-35.7-129.5
			C4594.1,671.8,4562.2,639.8,4522.3,616z M4546.1,932.7c-15.6,27.8-36.8,49.7-63.3,65.8c-26.6,16.1-56,24.2-88.2,24.2
			c-32.7,0-62.7-8.2-90-24.5c-27.3-16.3-48.9-38.3-64.8-65.8c-15.9-27.5-23.8-57.9-23.8-91c0-33.1,7.8-63.7,23.5-91.7
			c15.6-28,36.9-50.2,63.7-66.5c26.8-16.3,56.6-24.5,89.2-24.5c32.2,0,61.8,8.2,88.9,24.5c27.1,16.3,48.5,38.5,64.4,66.5
			c15.9,28,23.8,58.6,23.8,91.7C4569.6,874.5,4561.8,905,4546.1,932.7z"/>
		<polygon class="st6" points="5976.1,837.9 6137.8,585.9 6039.1,585.9 5931.3,770 5811.6,585.9 5708,585.9 5868.3,833 5701,1095.5 
			5801.8,1095.5 5913.8,903 6039.1,1095.5 6144.1,1095.5 		"/>
		<rect x="2859.8" y="1017.1" class="st6" width="253.4" height="78.4"/>
		<rect x="2859.8" y="795.6" class="st6" width="253.4" height="87.3"/>
		<path class="st6" d="M4020.4,836.8c13.3-26.8,20-55.9,20-87.1c0-51.3-17.1-91.5-51.5-120.4c-34.3-28.9-79.9-43.4-136.8-43.4
			h-115.9h-27.6H3604h-22h-58.5v326.2c0,20.1-5.1,38.5-15.4,55.3c-10.3,16.8-24.4,30.1-42.4,39.9c-18,9.8-37.9,14.7-59.8,14.7
			c-21,0-40.4-5-58.1-15c-17.7-10-31.7-23.5-42-40.2c-10.3-16.8-15.4-35-15.4-54.6V585.9h-81.2v328.3c0,36.4,8.6,68.7,25.9,97
			c17.3,28.2,41,50.3,71,66.1c30.1,15.9,63.3,23.8,99.8,23.8s69.8-7.9,100.1-23.8c30.3-15.9,54.2-37.9,71.8-66.1
			c17.5-28.2,26.2-60.6,26.2-97v-250h104.6h27.6h87.3v0h42.6c21.9,0,39.7,4.8,53.2,14.4c13.5,9.6,23.1,21,28.7,34.3
			c5.6,13.3,8.4,26.5,8.4,39.5c0,22.4-7.3,42.6-22,60.5c-14.7,18-38.4,27-71,27h-72.8v-0.1h-81.9v255.6h81.9V918.4h73.5h8.4
			l114.8,177.1h94.5l-123.9-196.7C3986.2,884.3,4007.1,863.7,4020.4,836.8z"/>
		<polygon class="st6" points="5334.9,1095.5 5416.8,1095.5 5416.8,885.5 5614.9,885.5 5614.9,808 5334.9,808 		"/>
		<polygon class="st6" points="5334.9,585.9 5212.2,585.9 5153.9,585.9 5131,585.9 5132.4,928.9 4766.3,568.4 4762.1,568.4 
			4762.1,1095.5 4844.7,1095.5 4842.6,757.4 5210.1,1113.7 5212.2,1113.7 5212.2,663 5334.9,663 5453.3,663 5644.3,663 
			5644.3,585.9 5453.3,585.9 		"/>
	</g>
</g>
</svg>
