<?xml version="1.0" encoding="UTF-8"?>
<svg id="Layer_2" data-name="Layer 2" xmlns="http://www.w3.org/2000/svg" viewBox="0 0 956.8902 299.2557">
  <defs>
    <style>
      .cls-1, .cls-2, .cls-3 {
        fill: #fff;
      }

      .cls-4 {
        opacity: .3;
      }

      .cls-5 {
        opacity: .4;
      }

      .cls-2 {
        opacity: .8;
      }

      .cls-3 {
        opacity: .75;
      }
    </style>
  </defs>
  <g id="Layer_1-2" data-name="Layer 1">
    <g>
      <path class="cls-1" d="M483.9305,201.6382V100.0215h43.0797c4.6753,0,8.9688,.9541,12.881,2.8624,3.9122,1.9083,7.2992,4.4845,10.1617,7.7286,2.9577,3.2441,5.2476,6.8699,6.8699,10.8773,1.6222,4.0074,2.4331,8.1102,2.4331,12.3085,0,5.7249-1.336,11.1635-4.0074,16.3159-2.6714,5.1526-6.3453,9.3504-11.0204,12.5949-4.6751,3.2439-10.2095,4.8661-16.6021,4.8661h-24.0445v34.063h-19.7508Zm19.7508-51.3809h22.8995c2.3854,0,4.5322-.6679,6.4405-2.0037,1.9085-1.3358,3.4349-3.2441,4.5799-5.7249,1.145-2.5762,1.7175-5.4864,1.7175-8.7304,0-3.5303-.6677-6.5359-2.0037-9.0167-1.2402-2.4808-2.9103-4.3414-5.0093-5.5818-2.0037-1.2404-4.1983-1.8606-6.5836-1.8606h-22.0408v32.9181Zm67.5602,51.3809V126.6422h19.1783v74.9961h-19.1783Zm0-85.444v-19.0352h19.1783v19.0352h-19.1783Zm106.18,85.444h-19.1783v-42.0779c0-6.0111-1.0497-10.4003-3.1487-13.1674-2.0995-2.767-5.0093-4.1505-8.7304-4.1505-2.5762,0-5.2003,.6679-7.8717,2.0037-2.5762,1.3358-4.914,3.1964-7.013,5.5818-2.0995,2.2901-3.6259,4.9615-4.5799,8.015v43.7953h-19.1783V126.6422h17.3178v13.8828c1.9079-3.2441,4.341-5.9634,7.2992-8.158,2.9577-2.29,6.3447-4.0074,10.1617-5.1524,3.9116-1.2404,8.0148-1.8606,12.3085-1.8606,4.6751,0,8.4915,.8587,11.4498,2.5762,3.0529,1.6221,5.3429,3.8643,6.8699,6.7267,1.6217,2.767,2.7193,5.9157,3.2918,9.4461,.6677,3.5303,1.0018,7.1084,1.0018,10.7343v46.8009Zm61.33-58.3939c-5.8207,0-11.0204,1.145-15.6003,3.4349-4.5799,2.1946-7.8717,5.3909-9.8754,9.5893v45.3697h-19.1783V126.6422h17.604v16.0297c2.6714-5.1524,6.0584-9.2075,10.1616-12.1654,4.1026-2.9578,8.4442-4.5799,13.0241-4.8661h2.4331c.5725,0,1.0492,.0477,1.4312,.1431v17.4609Zm44.4939,59.8251c-6.0111,0-11.4498-1.0019-16.3159-3.0056-4.8661-2.0995-9.0167-4.914-12.4516-8.4442-3.4349-3.6259-6.1063-7.7286-8.0148-12.3085-1.8127-4.6757-2.7193-9.5892-2.7193-14.7416,0-7.1561,1.5743-13.6924,4.723-19.6079,3.2445-5.9157,7.8244-10.6387,13.7397-14.1691,6.0111-3.6258,13.072-5.4386,21.182-5.4386,8.2058,0,15.2188,1.8129,21.0389,5.4386,5.8207,3.5303,10.2574,8.2533,13.3103,14.1691,3.1487,5.8203,4.723,12.1176,4.723,18.8923,0,1.145-.0474,2.3373-.1431,3.578-.0952,1.145-.1905,2.0989-.2862,2.8624h-57.9644c.382,3.8164,1.4791,7.1561,3.2918,10.0185,1.9085,2.8624,4.2937,5.0566,7.1561,6.5836,2.9582,1.4312,6.1069,2.1468,9.446,2.1468,3.8169,0,7.395-.9066,10.7342-2.7193,3.4349-1.9085,5.7728-4.3894,7.013-7.4423l16.459,4.5799c-1.8127,3.8164-4.4368,7.2034-7.8717,10.1617-3.3392,2.9577-7.2992,5.2955-11.8791,7.013-4.5799,1.6217-9.6365,2.4331-15.1709,2.4331Zm-19.6077-44.9403h39.2154c-.3815-3.817-1.4786-7.1088-3.2918-9.8756-1.7175-2.8624-4.0074-5.057-6.8699-6.5836-2.8624-1.6221-6.0585-2.4331-9.5892-2.4331-3.4349,0-6.5836,.811-9.446,2.4331-2.7666,1.5266-5.0566,3.7212-6.8699,6.5836-1.7175,2.7668-2.7666,6.0586-3.1487,9.8756Zm105.2855,44.9403c-6.0111,0-11.4498-1.0019-16.3159-3.0056-4.8662-2.0995-9.0167-4.914-12.4516-8.4442-3.4349-3.6259-6.1063-7.7286-8.0148-12.3085-1.8127-4.6757-2.7193-9.5892-2.7193-14.7416,0-7.1561,1.5743-13.6924,4.723-19.6079,3.2439-5.9157,7.8238-10.6387,13.7397-14.1691,6.0111-3.6258,13.072-5.4386,21.182-5.4386,8.2058,0,15.2188,1.8129,21.0389,5.4386,5.8201,3.5303,10.2569,8.2533,13.3103,14.1691,3.1487,5.8203,4.723,12.1176,4.723,18.8923,0,1.145-.0479,2.3373-.1431,3.578-.0952,1.145-.191,2.0989-.2863,2.8624h-57.9644c.3815,3.8164,1.4791,7.1561,3.2918,10.0185,1.9085,2.8624,4.2937,5.0566,7.1561,6.5836,2.9577,1.4312,6.1063,2.1468,9.446,2.1468,3.8164,0,7.3945-.9066,10.7342-2.7193,3.4349-1.9085,5.7728-4.3894,7.013-7.4423l16.459,4.5799c-1.8127,3.8164-4.4368,7.2034-7.8717,10.1617-3.3397,2.9577-7.2992,5.2955-11.8791,7.013-4.5799,1.6217-9.6371,2.4331-15.171,2.4331Zm-19.6077-44.9403h39.2154c-.3815-3.817-1.4791-7.1088-3.2918-9.8756-1.7175-2.8624-4.0074-5.057-6.8699-6.5836-2.8625-1.6221-6.059-2.4331-9.5892-2.4331-3.4349,0-6.5836,.811-9.446,2.4331-2.7672,1.5266-5.0572,3.7212-6.8699,6.5836-1.7175,2.7668-2.7672,6.0586-3.1487,9.8756Zm70.3631-60.9701h19.1783v80.4347c0,3.4349,.5725,5.7722,1.7175,7.013,1.145,1.145,2.7193,1.7175,4.723,1.7175,1.527,0,3.1013-.191,4.723-.5725,1.6222-.382,3.0535-.8587,4.2937-1.4312l2.5762,14.5984c-2.5762,1.2402-5.5818,2.1942-9.0167,2.8624-3.4349,.6677-6.5357,1.0019-9.3029,1.0019-6.0111,0-10.6863-1.5743-14.026-4.723-3.2439-3.2445-4.8662-7.8244-4.8662-13.7397V97.1591Z"/>
      <g id="Logo" class="cls-4">
        <rect class="cls-3" x="35.0663" y="132.3562" width="298.9365" height="83.546" rx="41.773" ry="41.773" transform="translate(-67.4727 203.5628) rotate(-50)"/>
        <rect class="cls-2" x="-69.4034" y="114.5654" width="296.86" height="83.546" rx="41.773" ry="41.773" transform="translate(-40.8548 284.07) rotate(-110)"/>
        <rect class="cls-1" x="-1.6291" y="31.5363" width="298.9365" height="83.546" rx="41.773" ry="41.773" transform="translate(14.9761 -24.5583) rotate(10)"/>
      </g>
      <g id="Logo-2" data-name="Logo" class="cls-5">
        <rect class="cls-3" x="49.1965" y="146.4835" width="298.9365" height="83.546" rx="41.773" ry="41.773" transform="translate(-74.5302 171.743) rotate(-40)"/>
        <rect class="cls-2" x="-50.581" y="110.6417" width="296.86" height="83.546" rx="41.773" ry="41.773" transform="translate(-35.2589 275.2437) rotate(-100)"/>
        <rect class="cls-1" x="30.5657" y="40.8231" width="298.9365" height="83.546" rx="41.773" ry="41.773" transform="translate(39.107 -56.5941) rotate(20)"/>
      </g>
      <g id="Logo-3" data-name="Logo">
        <rect class="cls-3" x="59.1856" y="161.145" width="298.9365" height="83.546" rx="41.773" ry="41.773" transform="translate(-73.5047 131.5128) rotate(-30)"/>
        <rect class="cls-2" x="-32.8364" y="108.3412" width="296.86" height="83.546" rx="41.773" ry="41.773" transform="translate(-34.5207 265.7079) rotate(-90)"/>
        <rect class="cls-1" x="59.1856" y="53.8546" width="298.9365" height="83.546" rx="41.773" ry="41.773" transform="translate(75.7682 -91.5153) rotate(30)"/>
      </g>
    </g>
  </g>
</svg>