<svg xmlns="http://www.w3.org/2000/svg" xmlns:xlink="http://www.w3.org/1999/xlink" viewBox="0 0 400 400" width="400" height="400" preserveAspectRatio="xMidYMid meet" style="width: 100%; height: 100%; transform: translate3d(0px, 0px, 0px); content-visibility: visible;"><defs><clipPath id="__lottie_element_81"><rect width="400" height="400" x="0" y="0"></rect></clipPath></defs><g clip-path="url(#__lottie_element_81)"><g transform="matrix(0.37322428822517395,0,0,0.37322428822517395,193.4329071044922,198.06619262695312)" opacity="0.27" style="display: block;"><g opacity="1" transform="matrix(0.9719499945640564,0,0,0.9719499945640564,11.178000450134277,-2.697000026702881)"><path fill-rule="evenodd" fill="rgb(55,47,227)" fill-opacity="1" d=" M0,-165.92750549316406 C91.57539367675781,-165.92750549316406 165.92750549316406,-91.57539367675781 165.92750549316406,0 C165.92750549316406,91.57539367675781 91.57539367675781,165.92750549316406 0,165.92750549316406 C-91.57539367675781,165.92750549316406 -165.92750549316406,91.57539367675781 -165.92750549316406,0 C-165.92750549316406,-91.57539367675781 -91.57539367675781,-165.92750549316406 0,-165.92750549316406z"></path><path stroke-linecap="butt" stroke-linejoin="miter" fill-opacity="0" stroke-miterlimit="4" stroke="rgb(0,0,0)" stroke-opacity="1" stroke-width="0" d=" M0,-165.92750549316406 C91.57539367675781,-165.92750549316406 165.92750549316406,-91.57539367675781 165.92750549316406,0 C165.92750549316406,91.57539367675781 91.57539367675781,165.92750549316406 0,165.92750549316406 C-91.57539367675781,165.92750549316406 -165.92750549316406,91.57539367675781 -165.92750549316406,0 C-165.92750549316406,-91.57539367675781 -91.57539367675781,-165.92750549316406 0,-165.92750549316406z"></path></g></g><g transform="matrix(0.6781908869743347,0,0,0.6781908869743347,193.4329071044922,198.06619262695312)" opacity="0.49" style="display: block;"><g opacity="1" transform="matrix(0.9719499945640564,0,0,0.9719499945640564,11.178000450134277,-2.697000026702881)"><path fill-rule="evenodd" fill="rgb(55,47,227)" fill-opacity="1" d=" M0,-165.92750549316406 C91.57539367675781,-165.92750549316406 165.92750549316406,-91.57539367675781 165.92750549316406,0 C165.92750549316406,91.57539367675781 91.57539367675781,165.92750549316406 0,165.92750549316406 C-91.57539367675781,165.92750549316406 -165.92750549316406,91.57539367675781 -165.92750549316406,0 C-165.92750549316406,-91.57539367675781 -91.57539367675781,-165.92750549316406 0,-165.92750549316406z"></path><path stroke-linecap="butt" stroke-linejoin="miter" fill-opacity="0" stroke-miterlimit="4" stroke="rgb(0,0,0)" stroke-opacity="1" stroke-width="0" d=" M0,-165.92750549316406 C91.57539367675781,-165.92750549316406 165.92750549316406,-91.57539367675781 165.92750549316406,0 C165.92750549316406,91.57539367675781 91.57539367675781,165.92750549316406 0,165.92750549316406 C-91.57539367675781,165.92750549316406 -165.92750549316406,91.57539367675781 -165.92750549316406,0 C-165.92750549316406,-91.57539367675781 -91.57539367675781,-165.92750549316406 0,-165.92750549316406z"></path></g></g><g transform="matrix(0.8975056409835815,0,0,0.8975056409835815,193.4329071044922,198.06619262695312)" opacity="1" style="display: block;"><g opacity="1" transform="matrix(0.7570400238037109,0,0,0.7570400238037109,11.178000450134277,-2.697000026702881)"><path fill-rule="evenodd" fill="rgb(55,47,227)" fill-opacity="1" d=" M0,-165.92750549316406 C91.57539367675781,-165.92750549316406 165.92750549316406,-91.57539367675781 165.92750549316406,0 C165.92750549316406,91.57539367675781 91.57539367675781,165.92750549316406 0,165.92750549316406 C-91.57539367675781,165.92750549316406 -165.92750549316406,91.57539367675781 -165.92750549316406,0 C-165.92750549316406,-91.57539367675781 -91.57539367675781,-165.92750549316406 0,-165.92750549316406z"></path><path stroke-linecap="butt" stroke-linejoin="miter" fill-opacity="0" stroke-miterlimit="4" stroke="rgb(0,0,0)" stroke-opacity="1" stroke-width="0" d=" M0,-165.92750549316406 C91.57539367675781,-165.92750549316406 165.92750549316406,-91.57539367675781 165.92750549316406,0 C165.92750549316406,91.57539367675781 91.57539367675781,165.92750549316406 0,165.92750549316406 C-91.57539367675781,165.92750549316406 -165.92750549316406,91.57539367675781 -165.92750549316406,0 C-165.92750549316406,-91.57539367675781 -91.57539367675781,-165.92750549316406 0,-165.92750549316406z"></path></g></g><g transform="matrix(1.0836647748947144,0,0,1.0836647748947144,202.3496856689453,195.64581298828125)" opacity="1" style="display: block;"><g opacity="1" transform="matrix(1,0,0,1,97.375,48.8129997253418)"><path fill-rule="evenodd" fill="rgb(255,255,255)" fill-opacity="1" d=" M-130.031005859375,-96.68800354003906 C-130.031005859375,-96.68800354003906 -131,2 -131,3 C-131,4 -44.1879997253418,-47.25 -44.1879997253418,-47.25 C-44.1879997253418,-47.25 -130.031005859375,-96.68800354003906 -130.031005859375,-96.68800354003906z"></path><path stroke-linecap="butt" stroke-linejoin="miter" fill-opacity="0" stroke-miterlimit="4" stroke="rgb(255,255,255)" stroke-opacity="1" stroke-width="0" d=" M-130.031005859375,-96.68800354003906 C-130.031005859375,-96.68800354003906 -131,2 -131,3 C-131,4 -44.1879997253418,-47.25 -44.1879997253418,-47.25 C-44.1879997253418,-47.25 -130.031005859375,-96.68800354003906 -130.031005859375,-96.68800354003906z"></path></g></g></g></svg>