<?xml version="1.0" encoding="UTF-8"?>
<svg id="Layer_2" data-name="Layer 2" xmlns="http://www.w3.org/2000/svg" viewBox="0 0 811.4834 414.3287">
  <defs>
    <style>
      .cls-1 {
        fill: #fff;
      }
    </style>
  </defs>
  <g id="Layer_1-2" data-name="Layer 1">
    <g>
      <path class="cls-1" d="M99.3676,245.1665c1.8467,.3509,4.5581,.6909,7.1719,1.3935,10.8403,2.9141,17.8858,10.4646,23.4603,19.6537,6.8676,11.3204,10.99,23.7535,14.1392,36.5037,3.7356,15.1242,13.3555,23.6523,28.4923,26.3327,.5197,.0921,1.0429,.1643,1.5623,.2577,.0743,.0134,.1364,.094,.3409,.2434v3.5596c-.7394,.0664-1.338,.172-1.9355,.1661-12.4999-.1247-25.0002-.2333-37.4991-.425-2.1015-.0322-4.2068-.3712-6.2942-.6781-7.1339-1.0488-12.3578-4.9037-14.8503-11.585-3.158-8.4652-5.8021-17.1275-8.4971-25.7582-2.0689-6.6256-3.7917-13.3586-5.8118-20.0002-5.009-16.4686-17.5808-26.2696-34.7474-27.0267-4.8258-.2129-9.669-.0325-14.5966-.0325-.1284,.4948-.3259,.8996-.3253,1.3042,.0285,18.9247-.0542,37.8513,.2203,56.7727,.0588,4.0523,.9637,8.2408,2.2775,12.0945,2.5026,7.3402,6.6763,10.0655,16.1543,11.5459v3.6441H.0089v-3.631c.3305-.0778,.7306-.2376,1.1376-.2579,7.4061-.3695,12.3122-4.234,14.3011-11.1928,1.2662-4.4301,2.1469-9.1418,2.163-13.7309,.1566-44.7193,.1108-89.4393,.0523-134.1591-.0034-2.611-.3808-5.2761-.9834-7.8216-1.8496-7.812-6.2119-11.4653-14.192-12.1993-.7769-.0715-1.5546-.1346-2.4874-.215v-3.9263H2.988c20.3442,0,40.6904-.1738,61.032,.0568,15.3958,.1745,30.8405,.5286,45.8298,4.6484,4.7157,1.2961,9.3855,3.056,13.7594,5.2382,10.6678,5.3223,17.0863,14.1817,19.695,25.7112,2.3032,10.1796,2.313,20.448-.1002,30.616-3.3408,14.0766-12.1857,23.3878-25.705,28.0757-6.1089,2.1183-12.5229,3.3577-18.1314,4.8217Zm-49.2109-95.6167v94.595c10.4993-.5707,20.8219-.5984,31.0013-1.8196,12.8284-1.539,21.1321-9.1321,24.3565-21.6862,4.0559-15.7912,4.0838-31.6992-.0288-47.4887-3.2592-12.5129-11.4898-20.2004-24.3128-21.7733-10.1761-1.2482-20.5045-1.2554-31.0161-1.8272Z"/>
      <path class="cls-1" d="M165.2729,239.5023c.0724-51.903,42.2286-93.5855,94.5664-93.5038,50.9966,.0797,93.2276,42.7135,92.8929,93.8385-.3475,53.0571-43.6123,94.598-95.8665,93.442-49.7927-1.1016-91.3184-41.3417-91.5928-93.7767Zm39.1382,.1954c-.0285,10.5224,1.071,20.9211,3.594,31.1296,4.0938,16.5647,10.7579,31.7931,23.2146,43.9856,16.0358,15.6959,37.3425,16.2676,54.084,1.375,7.8384-6.9727,13.6451-15.4544,17.7351-25.0078,13.4866-31.5025,14.0656-63.5263,2.9769-95.7781-4.197-12.2069-10.7031-23.1293-20.363-31.9541-15.534-14.191-34.9642-14.8519-51.3082-1.6652-7.5308,6.0761-13.0467,13.7742-17.4183,22.3215-8.9281,17.4568-12.3794,36.1555-12.5151,55.5934Z"/>
      <path class="cls-1" d="M592.8087,228.2201c-.3899-16.3851,1.5506-32.8755-3.7592-48.7738-1.435-4.2965-3.3086-8.571-5.7125-12.3964-7.226-11.4993-18.3671-16.0496-31.5779-13.1407-8.2132,1.8084-15.5784,5.4972-21.9045,11.0828-1.3658,1.2059-2.5789,2.6714-3.5538,4.2124-1.4563,2.3019-1.031,3.0594,1.6523,3.7243,7.5287,1.8653,12.5304,7.279,13.6187,14.7405,1.4436,9.898-5.2605,19.2376-15.027,20.9344-9.3684,1.6277-18.3668-4.7815-20.4737-14.5057-.9137-4.217-.3578-8.1309,1.5261-12.0323,5.1682-10.703,13.6429-18.1758,23.3511-24.5461,14.6195-9.5929,30.7947-12.3141,47.9264-11.2084,13.2828,.8573,24.9517,5.0857,33.7201,15.5744,5.8252,6.9682,9.1077,15.1832,11.3144,23.8818,3.0294,11.9424,3.8498,24.135,3.8894,36.3878,.0729,22.5409,.0074,45.0821,.0305,67.6232,.0057,5.6015,.8978,11.0527,3.4421,16.1093,3.8245,7.6009,11.6152,10.9435,18.3844,7.9676,3.1646-1.3912,4.8377-3.3622,7.4645-8.8002,.1647,0,.353-.0462,.507,.0067,4.4189,1.5199,4.5009,1.7052,2.7464,6.0953-9.3394,23.3701-42.8182,29.7961-59.3214,11.3762-4.4301-4.9445-6.6982-10.8758-7.7562-17.3381-.1279-.781-.2481-1.5638-.4024-2.3397-.0466-.2347-.196-.4489-.4311-.9633-3.1832,8.4777-8.4796,15.1294-15.8317,19.8302-19.3057,12.3439-39.8283,15.6101-61.3265,6.4552-14.6818-6.2522-21.7838-17.9306-22.1363-33.8481-.2678-12.0915,2.5724-23.0265,11.2941-31.8964,5.32-5.4104,11.7056-9.2812,18.5188-12.4701,15.2934-7.1581,31.5421-11.4662,47.7607-15.8482,6.6227-1.7893,13.2696-3.4895,19.9037-5.2374,.671-.1768,1.3292-.4023,2.1635-.6572Zm-.0261,4.8397c-8.5495,2.7521-16.7373,5.1167-24.7257,8.0281-9.8847,3.6024-19.2168,8.3603-27.0825,15.5265-9.8827,9.0039-14.6924,20.0006-12.7253,33.5179,1.867,12.8295,10.7839,22.4528,22.9695,24.8543,17.2265,3.395,32.9409-4.8385,40.5228-21.3264,.6348-1.3804,.9919-3.0181,.9978-4.5381,.068-17.6063,.0434-35.2128,.0434-52.8193v-3.2429Z"/>
      <path class="cls-1" d="M455.7013,329.1822v3.929h-73.3159v-3.9076c1.5572-.2277,3.1218-.3466,4.6333-.6953,9.2765-2.1401,13.696-8.6893,15.3915-17.4466,.6312-3.2595,.8579-6.6392,.8816-9.9668,.0956-13.3816,.0644-26.7644,.0013-40.1464-.0063-1.3483-.2281-2.8767-.8838-4.0142-17.2163-29.8725-34.4317-59.7463-51.8606-89.4951-2.4141-4.1206-5.7129-7.8057-9.0164-11.3013-3.6849-3.8991-8.4846-5.8657-13.9107-6.1528-3.2653-.1728-3.3408-.3021-2.7129-3.8129h75.6171v3.3665c-1.5505,.1604-3.1757,.3407-4.8034,.4946-6.7296,.6365-9.8838,4.7224-8.8023,11.3373,1.0874,6.6515,4.181,12.4802,7.5449,18.1609,11.2506,18.9996,22.5843,37.95,33.8888,56.9178,1.3017,2.1842,2.6195,4.3588,4.1088,6.8352,.4926-.7868,.8931-1.3117,1.1753-1.8939,5.9824-12.3417,12.0199-24.6575,17.9009-37.0474,4.4718-9.4209,7.9523-19.1916,8.746-29.686,.2363-3.1234,.1421-6.3655-.4249-9.4382-1.6914-9.1668-8.2031-14.2749-18.7016-15.0792-.8638-.0662-1.728-.1276-2.7512-.203v-3.7861h73.2202v3.6239c-2.6104,.348-5.3353,.4997-7.9577,1.0992-8.9684,2.0506-15.7376,7.6369-21.8273,14.1328-10.7572,11.4748-18.7856,24.8309-25.81,38.7645-7.1221,14.1273-13.7706,28.4935-20.5724,42.7808-.4693,.9858-.684,2.1856-.6865,3.2866-.0412,18.0484-.2358,36.1009,.1114,54.1427,.0907,4.7101,1.3243,9.6164,3.0656,14.025,2.5464,6.4469,7.8959,9.9111,14.8326,10.7656,.9457,.1165,1.8875,.2646,2.9183,.4103Z"/>
      <path class="cls-1" d="M719.4661,329.1235c20.1679,.5967,39.6924-.2395,57.8377-9.3826,17.0374-8.5848,26.8299-22.5394,29.9637-41.2139,.4268-2.543,1.1668-3.7477,4.0464-2.8549v57.4419h-141.1705v-3.7533c3.7552-.2228,7.1957-1.3518,9.8659-4.1844,3.3326-3.5352,4.8812-7.9401,5.649-12.5767,.63-3.8045,1.0795-7.6888,1.0862-11.5387,.0746-42.6111,.0821-85.2224-.0169-127.8334-.0083-3.5603-.5334-7.2262-1.4902-10.6558-2.1358-7.6554-7.3203-11.6659-15.2582-12.441-.6044-.059-1.2095-.1092-1.9633-.1769-.0623-.6442-.1579-1.2315-.1651-1.8199-.0075-.6029,.0714-1.207,.1233-1.9697h73.3003v3.7245c-1.1647,.1094-2.3625,.1862-3.5503,.3392-11.2315,1.4458-17.3691,8.0213-18.1225,19.4263-.0986,1.4917-.1298,2.9903-.13,4.4857-.0065,50.5349-.0054,101.0698-.0054,151.6047,0,1.0431,0,2.0861,0,3.379Z"/>
      <path class="cls-1" d="M316.9515,87.27c-.3995,.6259-.8639,1.2198-1.1888,1.8822-7.9416,16.1931-26.1906,16.0729-37.1794,7.3284-5.894-4.6902-9.9508-10.8556-14.0347-17.0343-4.6526-7.0392-9.1679-14.1952-14.2552-20.9128-3.8909-5.1378-9.1449-8.6382-15.8271-9.6407-7.1803-1.0772-13.3741,1.0188-17.5806,6.6659-4.2766,5.7412-7.4697,12.2788-11.3038,18.3628-2.6602,4.2214-5.1516,8.685-8.5171,12.2969-6.0667,6.5108-15.6979,5.972-21.3436-.9262-2.7135-3.3154-4.7589-7.1712-7.1904-10.7252-1.6342-2.3887-3.2076-4.8709-5.1721-6.9711-4.279-4.5746-11.749-6.583-16.6573,1.2718-3.585,5.7371-6.7816,11.7163-10.1705,17.5765-.7921,1.3697-1.5858,2.7493-2.5103,4.0294-2.4498,3.3919-6.9025,4.93-10.7935,3.8187-3.377-.9645-5.1873-4.8595-4.2423-9.41,.2823-1.3591,.6714-2.8069,1.4249-3.9394,4.768-7.1667,9.2532-14.5746,14.6108-21.2811,5.2927-6.6252,12.4515-10.4437,21.3325-10.32,6.2565,.0872,11.3518,2.4774,15.0009,7.46,2.5372,3.4644,4.5431,7.3138,6.8681,10.9388,1.1823,1.8434,2.3625,3.7456,3.8633,5.3161,3.486,3.6479,8.1543,3.8647,11.6843,.2487,2.5518-2.6139,4.6101-5.7397,6.6995-8.7674,3.6416-5.2769,6.7971-10.9231,10.7609-15.937,10.2271-12.9365,27.6853-11.8946,38.4575-1.5187,7.0798,6.8194,11.7241,15.3262,16.924,23.487,4.0544,6.3631,8.2747,12.6768,13.0221,18.5252,3.9774,4.8998,9.3689,7.8419,16.0524,7.9011,6.7251,.0595,11.8507-2.8611,15.884-7.9623,4.9583-6.2712,7.4034-13.7156,9.6598-21.2303,.3531-1.1759,.6585-2.3661,1.3789-3.4893-.7565,5.1766-1.4466,10.364-2.2829,15.5277-1.9668,12.143-4.331,24.2141-8.5489,35.8013-1.5515,4.2625-3.5594,8.4472-5.9628,12.2901-3.3013,5.2783-6.9172,6.2053-12.6757,3.8835-2.3558-.9498-4.5844-2.2286-6.832-3.4303-8.3602-4.47-17.2325-6.7638-26.744-7.1417-16.4983-.6554-32.4025,1.4446-47.4031,8.7542-12.9053,6.2886-23.8351,15.2309-34.0506,25.1406-3.5391,3.4332-7.0338,6.9155-10.4539,10.4668-2.2194,2.3045-4.8106,2.3872-7.5279,1.4723-2.9319-.9872-5.4586-2.6371-6.3138-5.8498-.6687-2.5119,.7308-4.5152,2.3204-6.1616,5.1882-5.3739,10.1965-10.9819,15.8385-15.8455,12.5146-10.7881,26.4687-19.384,42.4658-23.9294,26.8314-7.6238,52.7823-6.1733,76.7352,9.4902,8.5677,5.6027,11.7319,1.8059,15.0761-4.3337,4.9575-9.1017,7.4004-19.1427,10.2411-29.0192,.3751-1.3042,.6788-2.6288,1.0155-3.944-.1848-.0717-.3695-.1434-.5543-.2151Z"/>
      <path class="cls-1" d="M565.3841,394.1266c4.9903,6.5343,9.8693,12.923,15.2289,19.9408-3.359,0-6.1471-.3044-8.8422,.0663-4.901,.6741-7.9384-1.0547-10.2089-5.5329-2.324-4.5835-5.4926-8.739-8.2915-13.0818l-.6769,.1074c-.0794,.7769-.2239,1.5534-.2277,2.3306-.0222,4.5732-.0796,9.1481,.021,13.7192,.0412,1.8706-.6565,2.498-2.4672,2.4161-2.3708-.1074-4.7588-.1519-7.1233,.0106-2.2438,.1542-2.8516-.7525-2.8399-2.8888,.0725-13.2798,.0359-26.5603,.0357-39.8405-.0001-6.5615,.0006-6.6161,6.4745-6.5453,5.7921,.0633,11.6454-.2172,17.3583,.5254,7.3908,.9606,11.7382,5.7861,12.2922,12.3866,.6752,8.0437-3.0049,13.8345-9.5056,15.7187-.3065,.0888-.5752,.3073-1.2273,.6674Zm-13.0144-13.5209h-.0149c0,.7011-.0003,1.4022,0,2.1033,.0019,4.5407,.6334,5.0554,5.187,4.174,.5982-.1158,1.1906-.303,1.7588-.5257,3.4833-1.3656,4.9344-5.0134,3.3716-8.4328-1.2115-2.6506-6.8263-4.9291-9.3358-3.6816-.4751,.2362-.8766,1.0534-.9234,1.6339-.1264,1.5672-.0432,3.1514-.0432,4.7288Z"/>
      <path class="cls-1" d="M597.3529,414.0674c2.3993-6.2827,4.6005-12.0919,6.8352-17.8883,3.7272-9.6675,7.5155-19.3117,11.1782-29.0034,.6594-1.7444,1.5045-2.5082,3.4428-2.4074,3.159,.1643,6.3383-.0558,9.4965,.1152,.8238,.0446,2.0619,.7586,2.3329,1.4636,5.955,15.4876,11.8013,31.0169,17.6564,46.5428,.0827,.2191,.0103,.4966,.0103,1.1273-3.9767,0-7.8947,.0256-11.8114-.0374-.4177-.0067-.8966-.4698-1.2192-.8342-.2767-.3125-.3791-.7835-.5431-1.1906q-2.5725-6.387-9.5801-6.3872c-3.0796,.0001-6.1609,.0644-9.2378-.0259-1.454-.0427-2.4888,.415-2.7171,1.8454-1,6.2657-5.0474,7.5438-10.5715,6.7152-1.5387-.2308-3.1413-.0353-5.2721-.0353Zm31.4847-18.2297c-1.8283-5.4708-3.5328-10.5709-5.2373-15.6711-.3046,.0379-.6093,.0758-.9139,.1137-1.7048,5.0864-3.4096,10.1729-5.2143,15.5574h11.3655Z"/>
      <path class="cls-1" d="M657.9222,364.8325c4.3754,0,8.3111-.1231,12.2259,.1075,.7512,.0443,1.7036,1.3632,2.083,2.2905,3.2941,8.0503,6.4747,16.1469,9.7004,24.2253,.3853,.965,.8389,1.9029,1.5294,3.4588,.6519-1.213,1.1367-1.9434,1.4582-2.7398,3.3532-8.3067,6.7388-16.6012,9.9697-24.9554,.7292-1.8854,1.7354-2.5297,3.7007-2.4468,3.4115,.1439,6.8335,.04,10.7807,.04-1.6266,3.8179-3.0837,7.2533-4.553,10.6835-5.1894,12.1156-10.4095,24.2182-15.5427,36.3575-.6781,1.6035-1.522,2.251-3.3176,2.2572-7.3147,.0252-7.3254,.0922-10.1726-6.6472-5.6077-13.2739-11.2035-26.5529-16.7986-39.8322-.3044-.7222-.5587-1.4654-1.0635-2.7989Z"/>
      <path class="cls-1" d="M729.8783,389.4267c-.0001-7.3079,.0647-14.6168-.0414-21.9232-.0302-2.0748,.5908-2.7637,2.7044-2.7337,7.662,.1088,15.3268,.0849,22.9896,.0124,1.8151-.0171,2.4416,.5572,2.4747,2.4176,.1396,7.8573,.1943,7.8561-7.6159,7.8564-1.5856,0-3.1882,.1509-4.753-.0286-3.1467-.3608-3.0639,1.5784-3.0366,3.7723,.0667,5.3648,.0165,5.3935,2.9183,5.4312,2.9063,.0378,5.8168,.0966,8.7192-.016,1.9882-.0771,2.8061,.5236,2.8327,2.6689,.094,7.6035,.1662,7.6022-7.3409,7.6029-1.6736,.0001-3.351,.0747-5.0199-.0137-1.6412-.0868-2.1397,.6388-2.1005,2.1923,.2111,8.3645-1.3459,6.968,6.7753,7.1199,2.0253,.0379,4.0575,.1016,6.0763-.0183,2.0062-.1191,2.6648,.7308,2.5309,2.6456-.1225,1.7524-.1218,3.5267-.0004,5.2792,.1315,1.8986-.6943,2.4178-2.4809,2.4024-7.751-.0667-15.5034-.0724-23.2542,.0028-1.8753,.0182-2.4261-.679-2.4082-2.4829,.0734-7.3953,.0306-14.7917,.0305-22.1877Z"/>
      <path class="cls-1" d="M494.6667,394.5276c-.0005-5.5437-.0983-11.09,.047-16.6298,.0592-2.2566-.7843-2.9821-2.9007-2.8603-1.8424,.106-3.6976-.031-5.5444,.0267-1.5438,.0483-2.1439-.5341-2.2191-2.1494-.3771-8.1044-.4185-8.1025,7.578-8.1024,7.9231,0,15.8466,.0458,23.7689-.0326,1.8932-.0188,2.7879,.4842,2.629,2.5208-.1364,1.7493-.1141,3.523-.0045,5.276,.1128,1.804-.5365,2.5987-2.4033,2.4985-1.8432-.0988-3.6998,.057-5.5439-.0326-2.041-.0992-2.72,.7027-2.7028,2.7833,.0913,10.9986-.0282,21.9993,.0956,32.9972,.0281,2.4988-.6139,3.5235-3.2256,3.287-2.2703-.2056-4.5802-.1486-6.8609-.0118-2.0383,.1223-2.8092-.5258-2.758-2.6766,.1341-5.6285,.0452-11.2623,.0446-16.894Z"/>
      <path class="cls-1" d="M783.2172,389.4397c.0001-7.2995,.0547-14.5996-.0355-21.898-.0248-2.0008,.4764-2.9286,2.6608-2.7666,2.2751,.1688,4.581,.1607,6.8576,.002,2.1862-.1524,2.8886,.6222,2.8692,2.8274-.0948,10.8165-.0456,21.6342-.0407,32.4515,.0017,3.698,.0211,3.7172,3.6245,3.7321,3.3433,.0138,6.6874,.0453,10.0299-.0068,1.5697-.0244,2.1177,.5936,2.1863,2.182,.35,8.1058,.3893,8.1041-7.5744,8.104-5.895,0-11.7927-.1063-17.6835,.0513-2.3953,.0641-2.9791-.789-2.9404-3.0451,.1238-7.2094,.0459-14.4223,.0461-21.6338Z"/>
      <path class="cls-1" d="M87.2089,51.981c1.5732,.6578,3.4946,.9449,4.6591,2.0378,4.9725,4.667,7.8774,10.5243,8.7053,17.298,.3302,2.7019-.4942,3.5285-3.1624,3.0111-7.1499-1.3863-13.5551-4.3876-18.5889-9.793-2.1193-2.2757-1.8665-5.7697,.363-8.4514,2.0256-2.4365,4.6402-3.7114,8.024-4.1026Z"/>
      <path class="cls-1" d="M224.5073,8.5706c-.029-4.6764,1.643-7.4081,5.3915-8.214,2.4728-.5316,5.2474-.4401,7.7375,.0831,3.2301,.6787,5.0679,3.3109,4.9169,6.6276-.2346,5.1545-1.887,9.834-5.7136,13.5086-2.46,2.3623-5.0636,2.2808-7.3448-.3084-3.1311-3.5539-4.696-7.7837-4.9876-11.6969Z"/>
      <path class="cls-1" d="M319.9161,21.7549c.2198-1.3483,.3952-3.0999,.8041-4.7952,.8903-3.6907,3.1685-6.1,7.0195-6.5553,3.9742-.4699,7.57,.5187,10.1085,3.8426,1.8447,2.4156,1.323,5.0333-.0586,7.4383-2.2481,3.9138-5.4567,6.8919-9.5862,8.7439-4.4045,1.9753-6.956,.6312-7.8683-4.0675-.2662-1.3713-.2631-2.7947-.4189-4.6068Z"/>
    </g>
  </g>
</svg>