<?xml version="1.0" encoding="UTF-8"?>
<svg fill="#fff" id="Layer_2" data-name="Layer 2" xmlns="http://www.w3.org/2000/svg" viewBox="0 0 816.0521 110.2051">
  <defs>
    <style>
      .cls-1 {
        stroke-width: 0px;
      }
    </style>
  </defs>
  <g id="Layer_3" data-name="Layer 3">
    <g>
      <path class="cls-1" d="m109.1047,55.1846c0,14.2528-.0095,28.5057.0081,42.7585.0034,2.7877-.8209,5.269-2.6148,7.3795-1.769,2.0814-4.0066,3.4903-6.6406,4.2722-1.6801.4987-3.3892.5941-5.128.5933-24.3024-.0115-48.6048-.0067-72.9073-.0066-2.9733,0-5.9488.0664-8.9195-.023-4.5476-.1368-8.2672-2.0035-10.9602-5.7048-1.2165-1.672-1.9049-3.5832-1.9162-5.6878-.0118-2.1834-.0153-4.3669-.0087-6.5503.0029-.9545.0797-1.0298,1.0493-1.0313,3.8532-.0062,7.7064-.0053,11.5596.0002,1.0496.0015,1.1015.061,1.1054,1.1601.0058,1.6376-.0041,3.2752.0041,4.9128.0048.9697.053,1.0145,1.0422,1.0198,1.3653.0073,2.7306.0024,4.0959.0024,24.9396.0011,49.8791.0021,74.8187.003,1.6118,0,1.5798.114,1.5797-1.5986-.0022-27.6573-.0022-55.3146-.0028-82.9719,0-.2729.0088-.5464-.0059-.8187-.0381-.708-.1479-.8118-.884-.8462-.2422-.0113-.4854-.0041-.7281-.0041-26.0925.0005-52.185.0015-78.2775.0011-1.7573,0-1.6322-.0646-1.6324,1.6341-.0023,18.5898-.004,37.1796-.0058,55.7695-.0002,1.5983-.1059,1.561,1.5173,1.561,18.2647-.0004,36.5295.0014,54.7942.0023q1.5521,0,1.5533-1.5418c.0005-2.881.0002-5.7619-.0009-8.6429-.0001-.2728-.0057-.5457-.0138-.8184-.012-.404-.2248-.6101-.6275-.618-.3336-.0065-.6673-.0122-1.0009-.0122-11.1955-.0001-22.391.0118-33.5865-.0057-3.4728-.0054-6.4766-1.2296-8.8685-3.7721-2.098-2.2301-3.2274-4.9026-3.2522-7.98-.0327-4.0634-.0252-8.1274-.0054-12.191.0288-5.8931,4.5724-10.9798,10.4378-11.7063.4497-.0557.9085-.0511,1.3631-.0512,11.9237-.0015,23.8474.0242,35.7709-.0087,6.3309-.0174,11.8214,5.2453,11.8128,11.8245-.0012.9401.0124,1.8805-.0059,2.8202-.0152.7807-.1165.888-.9136.8905-3.3981.0105-6.7962.0106-10.1942.0012-.7886-.0022-.8844-.1105-.9102-.8999-.0198-.6059.0101-1.2137-.0173-1.8191-.0282-.6221-.1442-.724-.766-.7688-.2416-.0174-.4852-.0081-.7279-.0081-10.7707,0-21.5415.0002-32.3122.0009q-1.4873.0001-1.4885,1.5078c-.0008,2.9113-.001,5.8226-.0002,8.7339,0,.2728.0054.5457.0144.8184.0121.3656.2085.5551.5711.5661.3335.0101.6672.0149,1.0008.0149,11.2258.0019,22.4517-.0029,33.6775.0082,2.7899.0027,5.3363.8173,7.5195,2.568,2.9089,2.3326,4.4933,5.3802,4.5391,9.1299.0499,4.0934.0259,8.1879.0069,12.2819-.0263,5.6616-4.3713,10.6681-9.9861,11.5149-.7465.1126-1.5076.1797-2.2621.1802-19.0839.0108-38.1678.0118-57.2518.0092-3.0023-.0004-5.8471-.6366-8.4082-2.2612-2.9792-1.8898-4.995-4.4742-5.5882-8.027-.0942-.5642-.1084-1.1469-.1086-1.721C.0107,51.3772.0179,31.7259,0,12.0747c-.0034-3.7435,1.6056-6.6422,4.4529-8.9405C7.0574,1.0319,10.0783.0793,13.3892.0232c2.5782-.0437,5.1577-.0123,7.7366-.0121,24.6058.002,49.2117.0113,73.8175-.0027,2.8226-.0016,5.4866.5404,7.9451,1.9417,2.4714,1.4086,4.3331,3.3821,5.4475,6.0267.4899,1.1625.6993,2.3808.7615,3.6297.0226.4539.0096.9096.0096,1.3645.0003,14.0713.0003,28.1425.0003,42.2138h-.0025Z"/>
      <path class="cls-1" d="m521.2521,71.6221c-8.3129,0-16.6257-.0001-24.9386,0-2.378,0-4.7159-.3086-7.0134-.919-.3805-.1011-.7557-.2247-1.1288-.3512-2.8666-.9721-4.769-2.9017-5.7687-5.7545-.8112-2.3147-1.1594-4.7093-1.2228-7.1416-.0631-2.4245-.0314-4.8516-.0316-7.2775-.0009-10.5833.0004-21.1665.004-31.7498.0009-2.6815.2965-5.3209,1.1017-7.8936,1.009-3.2241,3.0988-5.3426,6.3333-6.3564,2.0402-.6395,4.1243-1.0321,6.2532-1.0756,4.3961-.0898,8.7935-.1454,13.1904-.1525,11.9839-.0196,23.9677-.009,35.9516-.0047,2.3366.0008,4.6663.1315,6.9749.513,1.6225.2681,3.1914.7129,4.6792,1.4351,2.0063.9739,3.376,2.5276,4.2459,4.5528.9349,2.1763,1.2918,4.4779,1.4336,6.8179.0605.9975.0384,2.0008.0335,3.0013-.0047.9622-.0653,1.0253-1.0457,1.0266-4.4902.0058-8.9803.0025-13.4705.0024-.0303,0-.0607.0003-.091-.0009-.7863-.0297-.8875-.1109-.9041-.9078-.0214-1.0306.0032-2.0621-.0127-3.093-.0125-.8086-.0861-.8684-.8967-.8905-.182-.005-.3641-.0014-.5461-.0014-15.2908,0-30.5816,0-45.8724,0-1.5079,0-1.4311-.1057-1.431,1.434.0003,13.4339.0002,26.8678.0001,40.3016,0,1.5479-.0813,1.4471,1.4184,1.4472,15.2908.0002,30.5816.0002,45.8724,0q1.4584,0,1.4601-1.4259c.0008-4.0332.0002-8.0664.0002-12.0996,0-.1213.0009-.2426-.0004-.3639-.0122-1.0811-.0403-1.1165-1.1381-1.1169-7.6454-.0025-15.2908-.0012-22.9362-.0017q-1.5911,0-1.5935-1.6168c-.0013-2.9112-.0004-5.8224-.0001-8.7335,0-.2123-.0062-.4251.0062-.6367.0456-.78.1505-.8839.9187-.9164.212-.009.4247-.0037.6371-.0037,12.712-.0001,25.424-.0003,38.136.0002q1.4918,0,1.4933,1.4995c0,7.6418-.0062,15.2837.002,22.9255.0022,1.9771-.1395,3.9395-.5467,5.8738-.1868.8873-.431,1.7676-.7192,2.6277-.9605,2.867-2.8933,4.7797-5.7564,5.76-2.3156.7929-4.7086,1.2002-7.1419,1.2356-4.4286.0643-8.8586.0363-13.288.0408-4.2171.0043-8.4342.0009-12.6513.0009v-.0108Z"/>
      <path class="cls-1" d="m433.7587,45.9866c10.1866,8.4519,20.3731,16.9037,30.5597,25.3556-.0172.0729-.0344.1458-.0516.2187-.3086.024-.6171.0681-.9257.0687-2.7.0055-5.3999.0033-8.0998.0033-4.1561,0-8.3122-.0105-12.4683.0107-.6487.0033-1.1559-.1557-1.6298-.6153-1.4365-1.3929-2.915-2.7425-4.3641-4.1226-3.338-3.1788-6.6649-6.3692-10.0026-9.5483-3.7108-3.5345-7.4423-7.0475-11.1319-10.604-.7293-.703-1.483-.998-2.5012-.9849-3.9431.0506-7.8872.0205-11.831.0207-.2427,0-.4863-.0104-.7279.0065-.5717.0401-.6547.1267-.6906.7246-.0163.272-.0063.5456-.0063.8185-.0002,7.6109.0002,15.2218-.0004,22.8327q-.0001,1.459-1.4282,1.4611c-4.3078.0009-8.6156.0018-12.9234-.0021-.3873-.0004-.7747-.0354-1.2541-.0589-.0392-.4795-.1013-.8926-.1021-1.3057-.0076-3.76-.0044-7.5199-.0044-11.2799,0-18.1024.0015-36.2049-.0023-54.3073-.0004-1.887.0325-1.734,1.7546-1.7341,18.5963-.0012,37.1925-.0072,55.7888.0064,2.7953.002,5.5684.2308,8.2573,1.1061,3.8389,1.2497,6.141,3.8777,6.9999,7.7756.2399,1.0885.4032,2.2179.4101,3.3296.0383,6.1854.0206,12.3713.0149,18.5569-.0014,1.5605-.3025,3.0767-.7913,4.5514-1.0087,3.0432-3.0296,5.1214-6.0328,6.2518-2.0936.788-4.2679,1.1926-6.492,1.2347-3.0933.0586-6.1883.0258-9.2826.0319-.3268.0006-.6535,0-.9802,0l-.0607.1976Zm-14.9107-12.1239v-.0086c5.7041,0,11.4083.0273,17.1119-.0231,1.136-.01,2.2889-.2377,3.399-.5082,1.3611-.3317,2.157-1.3242,2.4547-2.6637.1564-.7033.2168-1.4395.2252-2.162.0274-2.3652.0137-4.7308.0099-7.0963-.0011-.6973.0116-1.397-.0393-2.0914-.1671-2.28-1.2122-3.5056-3.4667-3.9216-1.1562-.2133-2.346-.3389-3.521-.3415-11.2564-.0249-22.5128-.015-33.7693-.0149-.2124,0-.4254-.008-.637.0057-.5905.0382-.6761.1223-.7216.6965-.012.1508-.006.3031-.006.4547-.0003,5.5195-.0014,11.0389.0009,16.5584.0004,1.1022.0118,1.1076,1.119,1.1156.2124.0015.4248.0004.6372.0004,5.7344,0,11.4688,0,17.2032,0Z"/>
      <path class="cls-1" d="m162.2722,71.6221c-7.4935,0-14.9871.0003-22.4806-.0002-2.1312-.0001-4.2387-.2312-6.3084-.7343-.852-.2071-1.6945-.4779-2.5129-.7935-2.5697-.9908-4.2141-2.8787-5.1628-5.4245-.7922-2.1258-1.1016-4.3451-1.2457-6.5882-.0776-1.2087-.0502-2.425-.0459-3.6377.0032-.9012.0688-.9622,1.0078-.9637,4.0047-.0063,8.0093-.0058,12.014-.001.9965.0012,1.0559.0672,1.0654,1.1066.0094,1.0309-.0064,2.0621.0067,3.093.0105.8296.0713.8811.8737.904.1819.0052.364.0015.5461.0015,14.8658,0,29.7315.0002,44.5973-.0001,1.5119,0,1.4269.1027,1.4268-1.4368,0-4.1847.0002-8.3695-.0005-12.5542,0-.2729-.0062-.5457-.0093-.8186-.0042-.3722-.1985-.5546-.5646-.5611-.3336-.0059-.6673-.0113-1.0009-.0113-13.2882-.0006-26.5763-.0009-39.8645-.0003-2.6731.0001-5.3355-.145-7.9557-.7072-.8862-.1901-1.762-.4549-2.6176-.7564-2.7634-.9738-4.5368-2.9274-5.5199-5.6535-.8008-2.2205-1.1829-4.5279-1.2244-6.8656-.0726-4.0923-.0719-8.1878,0-12.2801.0405-2.3067.4217-4.5814,1.1885-6.781,1.0052-2.8834,2.9135-4.8298,5.8067-5.841,1.9933-.6967,4.0476-1.0788,6.1395-1.1953,2.269-.1264,4.5452-.1677,6.8183-.1708,11.5892-.0158,23.1784-.0109,34.7677-.0044,2.5807.0014,5.1613.1196,7.6804.7096,1.2901.3022,2.571.7275,3.7818,1.2645,2.0579.9127,3.4426,2.529,4.3295,4.5873.9389,2.1789,1.2622,4.4835,1.408,6.8222.049.7857.0383,1.5766.0237,2.3645-.0146.7849-.1064.8576-.916.8831-.2122.0067-.4247.0024-.6371.0024-3.6709,0-7.3419.0002-11.0128-.0002-.273,0-.5472.0112-.8188-.0093-.5669-.0428-.6773-.1353-.695-.7269-.0273-.909-.0038-1.8193-.0159-2.7289-.0114-.8649-.0568-.9015-.947-.9193-.1516-.003-.3034-.001-.4551-.001-13.7129,0-27.4258.0003-41.1387-.0005-1.5325,0-1.4181-.0604-1.4186,1.4491-.0013,3.9118-.0006,7.8236,0,11.7354,0,.2425.0064.4851.0087.7276.0035.3777.2065.5471.5712.55.3033.0024.6067.0083.91.0083,13.7129.0014,27.4258-.0017,41.1387.0067,2.6147.0016,5.2174.2118,7.7456.9039,1.1316.3098,2.2567.734,3.2941,1.2788,2.2578,1.186,3.4705,3.2204,4.2194,5.5817.6937,2.187,1.0021,4.4445,1.037,6.7186.066,4.3049.0599,8.6121.0048,12.9173-.0268,2.0913-.2645,4.1809-.8704,6.1958-.2952.9816-.674,1.9499-1.126,2.8697-.7708,1.5685-1.9745,2.7286-3.5489,3.5269-2.0657,1.0475-4.2763,1.5505-6.5519,1.7442-1.8396.1566-3.6925.2086-5.5398.2151-6.735.024-13.4702.0095-20.2053.0095v-.0108Z"/>
      <path class="cls-1" d="m781.0728,71.6328c-11.1939,0-22.3877.0003-33.5815-.0002-1.41,0-1.4144-.0019-1.4145-1.4015-.001-21.9528-.0009-43.9055.0002-65.8583,0-1.4019.027-1.4284,1.4196-1.4284,22.2057-.0009,44.4113-.0009,66.617,0,1.3441,0,1.3468.0044,1.3476,1.3855.0017,3.0321.0006,6.0642.0004,9.0963,0,.1819.0045.3642-.0047.5457-.0383.7546-.1175.8387-.8463.8693-.3028.0127-.6066.0044-.91.0044-16.7149.0001-33.4298,0-50.1448.0003q-1.452,0-1.4542,1.4294c-.0009,4.0631-.0004,8.1262,0,12.1892,0,.2122-.0075.4251.0061.6366.0412.6391.1317.7377.7493.7789.3022.0202.6065.0086.9099.0086,9.2827.0003,18.5654,0,27.8481.0005q1.6278,0,1.6297,1.5825c.0009,2.9715.0007,5.943-.0008,8.9145,0,.2727-.0019.5462-.0228.8178-.0268.3486-.2055.56-.5778.5647-.3033.0039-.6065.0121-.9098.0122-9.4041.0007-18.8081.0004-28.2121.0007q-1.417,0-1.4198,1.3715c-.0011,4.7302-.0014,9.4603.0007,14.1905.0005,1.2377.0052,1.2404,1.2767,1.2404,17.0182.0006,34.0366,0,51.0548.001,1.7306,0,1.6154-.1101,1.6166,1.6399.0021,3.396.0026,6.792-.0008,10.188-.0012,1.2122-.0072,1.2188-1.2133,1.219-11.2545.0017-22.5091.001-33.7636.0011Z"/>
      <path class="cls-1" d="m372.5431,71.5852c-.3518.0167-.6775.0455-1.0033.0457-5.1879.0028-10.3758-.0111-15.5635.0163-.762.004-1.2014-.2355-1.5678-.9228-2.3681-4.4413-4.7907-8.8534-7.1652-13.2913-.3056-.5712-.6823-.7529-1.2972-.7458-2.2144.0258-4.4293.0098-6.644.0098-11.1342,0-22.2684,0-33.4026,0-.273,0-.5483.0229-.8187-.004-.5863-.0583-.9556.1656-1.2287.7049-.7532,1.4875-1.5585,2.9485-2.3339,4.4248-1.5509,2.9529-3.1157,5.8988-4.6278,8.8714-.3495.6869-.7659.9598-1.5443.9543-4.5505-.0322-9.1014-.0149-13.6522-.0177-.2975-.0002-.5951-.0282-.8973-.0436-.1671-.4588.117-.745.2809-1.0419,1.2603-2.2828,2.5365-4.5567,3.806-6.8344,3.1738-5.6943,6.3448-11.3901,9.5203-17.0835,3.3527-6.0111,6.7111-12.0189,10.0634-18.0303,3.1308-5.6141,6.2563-11.2312,9.385-16.8465,1.4905-2.6752,2.9939-5.3433,4.4653-8.029.2986-.5449.6713-.7868,1.2966-.7847,4.49.0153,8.9802.0161,13.4702-.0012.6544-.0025,1.0561.2345,1.3776.8094,1.9684,3.5196,3.9686,7.0215,5.9529,10.5323,3.0139,5.3321,6.0225,10.6673,9.0353,16,3.3708,5.9663,6.7431,11.9317,10.1159,17.8968,4.119,7.2848,8.2416,14.5677,12.353,21.8568.2592.4596.634.8874.6241,1.5539Zm-46.7668-54.8158c-.9265,1.7129-1.8048,3.3339-2.6804,4.9564-1.9566,3.6258-3.9132,7.2516-5.8672,10.8788-1.8678,3.4672-3.7341,6.9353-5.5951,10.4063-.1488.2775-.2508.5801-.3797.8834.9383.2643,27.9694.2422,28.6656.0087-.1238-.6639-13.414-26.2146-14.1432-27.1336Z"/>
      <path class="cls-1" d="m664.8093,71.5729c-.4425.0257-.7362.0576-1.0299.0577-5.2479.003-10.496-.0135-15.7437.0191-.7837.0049-1.1894-.2842-1.547-.9535-2.3707-4.4392-4.7931-8.8506-7.1616-13.291-.3377-.6329-.7864-.717-1.4034-.7158-6.8557.0124-13.7113.0077-20.567.0077-6.6433,0-13.2868.0146-19.9299-.0188-.8114-.0041-1.2689.2455-1.6362.9636-1.6294,3.1848-3.3049,6.3459-4.9651,9.515-.6472,1.2354-1.3206,2.4577-1.9363,3.7085-.2781.5651-.645.7817-1.2788.7788-4.6715-.0216-9.3431-.0105-14.0146-.0142-.263-.0002-.526-.0399-.9223-.072.1903-.3951.3152-.6927.4714-.9729,2.4784-4.4497,4.9615-8.8967,7.4421-13.3452,3.1302-5.6136,6.2586-11.2283,9.3888-16.8418,3.0564-5.4812,6.1146-10.9613,9.171-16.4424,3.1304-5.6135,6.26-11.2275,9.3893-16.8416.6347-1.1387,1.2853-2.2691,1.8903-3.4234.2709-.5168.6189-.7553,1.2151-.7533,4.5501.015,9.1005.0178,13.6506-.0026.649-.0029.9793.2993,1.2718.8211,2.0308,3.6232,4.0808,7.2356,6.1253,10.8511,4.089,7.2311,8.1797,14.4611,12.2672,21.693,3.5504,6.2817,7.0967,12.5658,10.646,18.8481,2.8335,5.0153,5.6701,10.0289,8.5011,15.0456.2319.411.4312.8404.7058,1.3793Zm-32.6681-27.6681c-.1402-.3052-.262-.6036-.4104-.8881-2.0201-3.8704-4.0453-7.7381-6.0664-11.608-2.372-4.5418-4.7398-9.0858-7.1147-13.6261-.1603-.3065-.3648-.5899-.6188-.9962-.2298.3678-.3818.5844-.507.8155-1.1701,2.1591-2.3359,4.3205-3.5023,6.4815-1.9152,3.5484-3.8319,7.096-5.7443,10.6459-1.4954,2.7759-2.9874,5.5538-4.4746,8.3341-.1472.2752-.2507.5739-.3851.8863,1.1034.2046,28.0667.1654,28.8236-.0448Z"/>
      <path class="cls-1" d="m694.6997,2.9437c12.4673,0,24.9346-.0002,37.4018.0002q1.6017,0,1.6038,1.6086c.0011,3.0926.0004,6.1853.0004,9.2779,0,.1516.0015.3032-.0012.4548-.0189,1.0643-.0629,1.1143-1.1512,1.1146-9.4946.0022-18.9891.0007-28.4836.0021-1.5265.0002-1.4783-.1403-1.4782,1.4855.0012,17.7068-.0005,35.4136.0025,53.1204.0003,1.8661-.0434,1.619-1.6444,1.6222-4.3075.0087-8.6149.003-12.9223.0028-.2123,0-.4251.0064-.6369-.0038-.6829-.033-.7705-.1137-.8164-.8064-.022-.3322-.01-.6668-.01-1.0003-.0004-17.6158-.0013-35.2317.0013-52.8475.0003-1.7611.0082-1.5718-1.5905-1.5723-9.2822-.0027-18.5644.0022-27.8466-.0054-1.3092-.0011-1.5325.3162-1.5259-1.472.0117-3.1835.0015-6.3672.0042-9.5507.0012-1.4016.0293-1.4299,1.4185-1.43,12.5583-.0011,25.1166-.0007,37.6748-.0007Z"/>
      <path class="cls-1" d="m249.6872,2.9436c12.4701,0,24.9402-.0002,37.4103.0002q1.5548,0,1.5559,1.5366c.0005,3.1237.0002,6.2473,0,9.371,0,.2426.0067.4856-.0051.7277-.0346.7102-.102.782-.7882.816-.3027.015-.6067.0059-.9101.0059-9.2843.0002-18.5686,0-27.8529.0003q-1.4575,0-1.4591,1.4273c-.0004,17.7108-.0021,35.4216.0024,53.1324.0005,1.9888-.1006,1.6626-1.6959,1.6674-4.3084.0131-8.6168.005-12.9252.0042-1.4064-.0003-1.4102-.0019-1.4102-1.4036-.0009-17.7411-.0006-35.4822-.001-53.2234,0-.3335-.0069-.6671-.009-1.0006-.0025-.4154-.2168-.605-.6255-.5994-.273.0037-.5461-.0042-.8191-.0042-9.345-.0003-18.69,0-28.0349-.0005q-1.4658,0-1.4688-1.4328c-.0015-3.2146-.0007-6.4292,0-9.6438,0-.2425.0069-.485.0118-.7275.0081-.401.2117-.6199.6138-.6358.3333-.0132.6671-.0167,1.0008-.0168,12.4701-.0008,24.9402-.0007,37.4102-.0007Z"/>
      <path class="cls-1" d="m686.3553,82.42c3.3665-.0006,6.7333-.0273,10.0991.0177.8669.0116,1.7504.1751,2.5912.3997,1.2314.3288,2.0535,1.1576,2.3528,2.4165.1531.6441.2941,1.3104.2976,1.9675.0252,4.6682.0789,9.3379-.0075,14.0047-.0684,3.6978-1.6769,4.4082-4.5163,4.7559-.4792.0587-.9693.0352-1.4545.0353-6.2781.0019-12.5561.0103-18.8341-.009-.9042-.0028-1.819-.0789-2.7096-.2324-1.7481-.3013-2.7979-1.3743-3.1056-3.1217-.1203-.6831-.2004-1.3829-.2034-2.0755-.0182-4.244-.03-8.4883.0079-12.732.008-.8981.1544-1.8134.3733-2.6867.3016-1.2033,1.1218-2.0205,2.3251-2.3354.8137-.2129,1.6658-.376,2.5028-.3864,3.4266-.0425,6.854-.0177,10.2812-.0184Zm-.0463,18.965c2.82,0,5.6401.0042,8.4602-.0024.9453-.0022.9992-.053,1.0003-.9624.0054-4.2433.0056-8.4866-.0005-12.7298-.0013-.873-.0737-.9313-.9246-.9533-.1212-.0031-.2426-.0012-.3639-.0012-5.4279,0-10.8557,0-16.2836,0-.182,0-.3644-.0068-.5457.0038-.6003.0351-.6832.112-.7275.6823-.014.1809-.0068.3635-.0068.5454-.0002,4.0614-.0002,8.1229.0001,12.1843,0,.1818.0068.3637.0054.5455-.0033.4405.1943.6833.6537.6805.2425-.0015.4851.0073.7276.0074,2.6684.0006,5.3369.0004,8.0053,0Z"/>
      <path class="cls-1" d="m150.2878,89.1605c-.0245-.544-.049-1.0774-.0725-1.6109-.0335-.7569-.0912-.8392-.8513-.8405-4.7635-.0079-9.527-.0079-14.2904.0005-.7499.0013-.8315.0916-.8441.849-.0172,1.0308-.0165,2.0623-.0007,3.0932.0122.7939.0864.8667.9135.8687,3.2768.0077,6.5536.003,9.8304.0042,1.7901.0006,3.5816-.0375,5.3697.0231.9012.0305,1.8114.178,2.6905.3867,1.3909.3303,2.2359,1.2593,2.6016,2.642.3954,1.4952.391,6.9239-.0027,8.4113-.3751,1.4172-1.2366,2.3517-2.67,2.6876-.7041.165-1.4325.3149-2.1506.3179-5.9466.025-11.8935.0296-17.84-.0044-.8046-.0046-1.6218-.2033-2.4084-.4074-1.0992-.2852-1.9207-.9887-2.2075-2.094-.2638-1.0166-.3623-2.0785-.4961-3.1252-.0502-.3923.1189-.7145.5669-.7993,1.4295-.2704,2.8584-.544,4.2887-.8105.0838-.0156.1773.0209.296.0372.3148.4918.1549,1.0492.1742,1.5761.0358.9737.0514,1.0164,1.0467,1.0172,5.0972.0042,10.1945.0044,15.2917-.0002.9856-.0009,1.0307-.0517,1.0379-1.0237.0077-1.031.0099-2.0623-.0014-3.0933-.0095-.866-.0701-.9349-.9388-.9367-3.7926-.0078-7.5853.0106-11.3777-.0109-1.6662-.0094-3.3357-.0384-4.9973-.1523-2.7019-.1852-3.9742-1.2862-4.2397-3.9475-.1885-1.8893-.1825-3.8266-.0017-5.7175.2732-2.8556,1.5627-3.7325,4.4596-4.0557.4205-.0469.8487-.032,1.2733-.0321,5.1276-.0002,10.2552-.0081,15.3826.0152.7517.0034,1.5159.0973,2.2515.2552,1.6761.3598,2.7415,1.3778,3.03,3.1023.0994.5941.1164,1.2027.1558,1.8057.025.3827-.1536.6412-.5388.7266-1.391.3086-2.782.6175-4.1759.913-.1355.0287-.2903-.0341-.555-.0709Z"/>
      <path class="cls-1" d="m792.9167,98.8176c0,.5413-.0045,1.0476.001,1.5538.0107.9688.0445,1.0021,1.0437,1.0127.5762.0061,1.1525.0015,1.7287.0015,4.3674,0,8.7347,0,13.1021-.0002.273,0,.5459-.0075.8189-.0045.439.0048.6805-.1783.678-.6469-.0065-1.2428-.0063-2.4858.0016-3.7286.0028-.4497-.1915-.6793-.6497-.6744-.273.0029-.5459-.0055-.8189-.0055-4.5796-.0005-9.1594.0203-13.7388-.0159-1.0839-.0086-2.1769-.1478-3.2471-.3343-1.6736-.2916-2.6776-1.3342-3.0061-3-.0992-.5031-.1796-1.0182-.1892-1.5292-.026-1.394-.0572-2.7907-.0004-4.1828.1442-3.536,1.5723-4.5821,4.764-4.8182,1.2975-.096,2.6071-.0352,3.9112-.0351,4.2157.0004,8.4316-.0176,12.6469.0279.8962.0097,1.8089.1854,2.6799.4143,1.127.2962,1.9284,1.0689,2.2519,2.1859.2325.8034.2868,1.6608.3907,2.4978.051.4117-.1444.6975-.5746.7928-1.3316.295-2.659.6101-3.9951.8829-.5601.1143-.7134-.0266-.7574-.5993-.0324-.4223-.0211-.8482-.0213-1.2725-.0004-.4019-.1729-.6294-.5957-.6279-.2123.0007-.4245-.0075-.6367-.0075-4.4887-.0005-8.9773-.0004-13.466-.0003-.1516,0-.3036-.004-.4549.0029-.7037.032-.8082.1082-.8212.7847-.021,1.0909-.0212,2.1828.001,3.2737.0131.6457.1109.729.7535.7524.5453.0198,1.0917.0065,1.6376.0066,4.428.0009,8.8561-.0196,13.2838.0184.9909.0085,1.9915.1632,2.9671.3546,1.4448.2835,2.3418,1.2066,2.7096,2.6298.106.4099.245.8298.2452,1.2453.0014,2.1478-.019,4.2961-.0769,6.443-.0119.4416-.1938.8851-.3349,1.3154-.3365,1.025-1.0491,1.7151-2.067,2.0101-.7797.226-1.5986.4377-2.4015.4426-6.0352.0367-12.0708.0409-18.1058-.002-.8589-.0061-1.7271-.2784-2.5701-.505-.9077-.244-1.5007-.8995-1.8599-1.7457-.4574-1.0779-.5805-2.2209-.5698-3.3824.0037-.4083.1483-.7049.5893-.7882,1.429-.2699,2.8573-.5442,4.287-.8106.0832-.0155.1764.0235.4664.0681Z"/>
      <path class="cls-1" d="m462.7563,82.4716c.3712-.0241.6681-.0601.9649-.0601,5.4869.0009,10.9739-.0061,16.4607.0163,2.1727.0089,4.2856.4175,6.2876,1.2655,4.2154,1.7856,6.4124,4.9874,6.6206,9.5632.1052,2.312-.2072,4.5316-1.3116,6.6012-1.7732,3.3228-4.599,5.168-8.2553,5.7498-1.549.2465-3.1315.3732-4.7003.3888-5.0014.0496-10.0036.0224-15.0055.0211-.3273,0-.6546-.0323-1.0587-.0537-.0487-.4092-.1266-.7599-.127-1.1107-.0071-7.0903-.0071-14.1806,0-21.2709.0004-.3515.077-.703.1247-1.1105Zm5.9287,11.5602c0,2.1227-.005,4.2455.0023,6.3682.0032.9271.0531.9822.9829.9818,2.8517-.0013,5.7041.0152,8.555-.0389,1.6114-.0306,3.1925-.3277,4.7191-.8772,1.9892-.716,3.2761-2.0954,3.6707-4.1592.2135-1.1172.242-2.2913.1927-3.4328-.1212-2.808-1.7931-4.8264-4.4905-5.6378-1.2974-.3903-2.6336-.4563-3.9604-.4814-2.9115-.0551-5.8247-.0218-8.7372-.0158-.8855.0018-.9287.0451-.932.9249-.0078,2.1227-.0025,4.2454-.0026,6.3681Z"/>
      <path class="cls-1" d="m361.3013,106.0132c-2.912.0001-5.8243.0281-8.7356-.017-.8687-.0134-1.751-.1631-2.5974-.3711-1.2811-.3147-2.1175-1.1765-2.4343-2.4546-.1881-.7588-.3348-1.5507-.3387-2.3286-.0293-5.7908-.021-11.5817-.0172-17.3726.0007-.9917.0642-1.0507,1.0157-1.0575,1.3346-.0095,2.6693-.0089,4.0039-.0005.9561.006,1.0318.0724,1.0339,1.0453.0083,3.9111.004,7.8223.0044,11.7334.0002,1.7282-.0059,3.4564.0033,5.1845.0049.9287.0731,1.0056.9706,1.0069,4.7319.0067,9.4639.0065,14.1958.0005.9422-.0012,1.0193-.0828,1.0203-1.0599.0052-5.4574.0087-10.9148-.0001-16.3722-.003-1.8329.1707-1.523,1.5532-1.5382,1.2131-.0133,2.4268-.0133,3.6399.0039.751.0107.8401.0951.8489.8471.0179,1.5157.008,3.0318.0081,4.5478.0002,4.2446.0217,8.4895-.0179,12.7338-.0086.9274-.1612,1.8713-.3828,2.7744-.288,1.1737-1.0914,1.9739-2.2646,2.2717-.8737.2218-1.7852.3891-2.6829.4042-2.9415.0496-5.8843.0186-8.8266.0187Z"/>
      <path class="cls-1" d="m251.2765,82.4087c4.2441,0,8.4882,0,12.7323,0,.2122,0,.4245-.0026.6366.0011.9562.0166,1.0152.0708,1.0296,1.05.0107.7271.0096,1.4545.0007,2.1816-.0125,1.0285-.0686,1.0902-1.0779,1.0921-2.9406.0055-5.8811-.0003-8.8217.0033-1.6659.002-1.5668-.1566-1.5669,1.5766-.0003,5.4542.0009,10.9083-.001,16.3625-.0005,1.341-.005,1.3423-1.3739,1.3435-1.2732.0011-2.5466.0102-3.8196-.0057-.7477-.0093-.8373-.1008-.8604-.841-.0217-.6963-.0081-1.3937-.0082-2.0906-.0003-4.9087-.0002-9.8175-.0002-14.7262,0-.2424.0044-.4849-.0018-.7272-.0212-.8211-.0707-.8854-.882-.8891-2.0917-.0095-4.1834-.0035-6.2752-.0038-1.1217-.0002-2.2434.0091-3.3649-.0047-.7987-.0098-.8882-.0937-.9087-.8929-.0217-.8479-.0221-1.6972.0005-2.545.021-.7897.1113-.8769.921-.8797,2.7889-.0096,5.5779-.0045,8.3669-.0048,1.7583-.0002,3.5165,0,5.2748,0Z"/>
      <path class="cls-1" d="m578.1908,94.2162c-.0004-3.4251-.0005-6.8503,0-10.2754,0-.2728-.0105-.5468.0111-.818.0465-.5842.1315-.695.7165-.7023,1.5463-.0194,3.093-.0023,4.6395-.0081.4569-.0017.6637.2267.6775.6627.0077.2423.0144.4847.0144.7271.0008,6.9412.0005,13.8824.0005,20.8236,0,.1212.0016.2425-.0017.3637-.0254.9556-.0863,1.0225-1.0526,1.028-1.3039.0074-2.608.0068-3.9119.0003-1.035-.0052-1.0886-.0502-1.0905-1.0715-.0065-3.5767-.0025-7.1534-.0028-10.7301Z"/>
    </g>
  </g>
</svg>