<?xml version="1.0" encoding="UTF-8"?>
<svg id="Layer_2" data-name="Layer 2" xmlns="http://www.w3.org/2000/svg" viewBox="0 0 889.1057 287.3026">
  <defs>
    <style>
      .cls-1 {
        fill: #fff;
      }
    </style>
  </defs>
  <g id="Layer_1-2" data-name="Layer 1">
    <g>
      <path class="cls-1" d="M162.9201,0c10.9565,4.8649,21.8589,9.8558,32.8847,14.5596,11.1974,4.777,22.2551,4.216,33.0133-1.5924,1.6243-.877,3.3569-2.1073,5.0627-2.1456,2.2524-.0506,5.629,.1487,6.6206,1.5628,8.6174,12.2888,16.8086,24.8739,25.3502,37.7068-2.5984,1.9154-4.1677,3.3731-5.9915,4.3683-12.9425,7.0625-18.8897,18.2834-18.9704,32.572-.0661,11.7075,.149,23.5651,7.111,33.8195,2.5766,3.7951,5.4713,7.4806,8.7664,10.6547,2.6442,2.5472,3.7145,5.1136,1.8937,8.1151-5.4747,9.0249-3.5099,17.9034-.7492,27.2576,3.9873,13.5103,3.399,27.3327,1.2416,41.1941-4.9953,32.094-38.567,51.5371-65.808,44.8957-7.5264-1.835-13.8464-.6455-20.5297,2.2446-10.8187,4.6784-21.7018,9.2434-29.6493,18.3718-3.8198,4.3873-7.1107,9.2311-10.5269,13.718-4.6172-5.5608-8.8635-11.5502-13.9909-16.6636-9.9291-9.9021-23.3913-13.476-35.9877-18.4343-2.0302-.7991-4.8521-.0856-7.1901,.4446-33.776,7.659-64.3044-12.1841-69.9298-45.9553-2.5053-15.0398-2.198-30.1815,3.2508-44.653,2.4809-6.5891,2.3853-12.4415-.9166-18.5457-1.2879-2.3809-1.918-5.1145-2.9447-7.9559,2.3796-2.256,4.7938-4.1664,6.7439-6.4668,5.2355-6.1759,9.796-12.7855,10.5982-21.1575,.7323-7.6428,2.0608-15.3387,1.7222-22.9492-.5827-13.0969-6.4126-23.5681-18.4165-30.0477-1.8166-.9806-3.3787-2.4285-5.5784-4.0415,1.4718-2.7618,2.5737-5.2481,4.037-7.5017,5.8761-9.0502,11.8079-18.0658,17.8299-27.0204,4.2216-6.2775,7.4091-7.6969,13.9685-3.9487,14.1982,8.1133,27.934,5.7127,41.7418-.3756,8.7183-3.8441,17.2938-8.0092,25.9333-12.0303,2.4754,0,4.9508,0,7.4262,0,1.6339,.6134,3.2609,1.7367,4.9027,1.7584,11.5795,.1532,23.1631,.1523,34.7426-.0026C152.2269,1.7338,153.857,.6125,155.4939,0,157.9693,0,160.4447,0,162.9201,0Zm71.8782,18.6167c-18.2073,11.3374-35.2897,7.5633-52.2646-.2545-4.2048-1.9365-8.4909-3.722-12.5818-5.8743-7.2176-3.7973-14.6496-3.5398-22.543-2.7191-9.7787,1.0167-19.9997,2.2935-29.4778,.5252-10.9932-2.051-19.9835,.9365-29.3886,5.1258-7.3102,3.2562-14.769,6.2457-22.338,8.8452-9.0824,3.1192-18.2561,2.5251-27.249-.7757-3.1086-1.141-6.1951-2.3418-9.759-3.6923-6.306,9.7007-12.2847,18.898-18.4065,28.3155,8.572,6.1549,15.4738,12.8715,18.1602,22.4527,5.6429,20.1252,4.1466,39.6112-6.8451,57.8224-2.1849,3.62-5.0704,6.8207-7.6155,10.1918,.5532,1.4378,.8573,2.6505,1.4504,3.7016,3.9127,6.9335,3.5505,13.6149,.4301,20.9722-5.8756,13.8533-4.6507,28.3097-1.9937,42.7245,2.7337,14.8311,10.2462,26.2079,23.8516,33.2841,10.1212,5.264,20.4986,8.1124,32.1172,5.2474,4.9276-1.2151,10.7312-2.2118,15.3402-.7747,12.9721,4.0447,25.5341,9.4557,36.2038,18.2001,3.6969,3.0298,6.8978,6.6597,10.6552,10.3386,9.3545-12.0836,21.9245-18.3713,34.9462-24.3899,9.4334-4.3601,18.3528-5.6666,28.5852-3.2979,20.3008,4.6994,44.8698-9.0186,51.2466-28.8277,5.0475-15.6798,7.4284-32.0941,2.1807-48.1748-3.3431-10.2443-5.996-19.8442,.9251-29.4716-11.9637-12.0238-17.3178-26.1382-18.0702-42.057-.8664-18.3293,2.309-35.0909,19.0232-46.3162,.7136-.4793,1.1519-1.3649,2.031-2.4453-5.9898-9.2279-11.9778-18.4529-18.6137-28.6761Z"/>
      <path class="cls-1" d="M553.0416,222.7945h-10.4738c-.671-13.5925,.0329-26.9771-2.106-40.8536-3.6917,4.7973-7.3823,9.5955-11.0756,14.3916-1.5028,1.9515-2.9026,3.995-4.5396,5.8281-3.6265,4.0613-5.2772,4.1053-8.7036-.1874-4.2239-5.2919-8.1494-10.8192-12.2515-16.2087-1.0719-1.4083-2.3209-2.683-4.9774-5.7229v41.682c-3.8954,.2861-6.7888,.4986-10.9974,.8077-.6538-23.865-.2176-47.0114-.3131-70.9363,7.2529,1.9603,8.7036,7.944,12.1339,11.8708,3.6377,4.1642,6.7692,8.7682,10.1014,13.1953,3.3185,4.4088,6.6117,8.8365,10.6071,14.1802,5.6273-7.3035,10.7976-14.0198,15.9744-20.7312,4.894-6.3448,8.937-13.4452,15.5509-19.2946,2.3903,7.7348,2.9763,58.5147,1.0703,71.979Z"/>
      <path class="cls-1" d="M417.2457,50.4787h10.7058c0,5.3375-.0172,10.1912,.0036,15.0447,.0422,9.8436-.2416,19.7046,.2571,29.5258,.4942,9.7327,7.3842,15.7474,17.0371,15.809,9.6311,.0614,16.5105-5.9012,16.9627-15.7603,.5211-11.3609,.2467-22.7581,.3081-34.1396,.018-3.3266,.0028-6.6534,.0028-10.5595,3.909-.1798,6.8716-.3161,9.4417-.4343,.8222,.9019,1.5691,1.34,1.5661,1.773-.1063,15.6519,.5386,31.3677-.6921,46.9358-1.1167,14.126-13.2446,23.3496-27.7008,23.1616-14.9176-.194-26.9265-10.0495-27.7049-24.3825-.8313-15.308-.1872-30.6953-.1872-46.9738Z"/>
      <path class="cls-1" d="M678.0359,97.8312h-36.6215c3.0609,14.2085,12.1832,16.5938,31.4788,8.7445,1.3584,2.1716,2.7637,4.4183,4.1247,6.5942-12.8949,10.7708-26.46,11.4015-38.3537,2.1409-10.62-8.2688-12.9451-25.056-5.0869-36.7275,7.5382-11.1962,23.713-14.7722,35.2829-7.8006,9.1733,5.5275,12.7578,15.4479,9.1755,27.0485Zm-9.4316-9.1253c-2.7615-9.4014-6.9547-12.5257-14.6459-11.7931-6.8753,.655-10.5277,4.2469-11.5275,11.7931h26.1734Z"/>
      <path class="cls-1" d="M699.0028,186.1877c-1.6451-1.5676-3.3605-3.2022-5.1154-4.8744,.463-1.1474,.6023-2.1203,1.146-2.7435,5.9113-6.7761,13.4761-9.342,22.3469-8.6533,9.699,.7529,16.0756,5.9677,17.8325,15.6173,2.2082,12.1282,.6971,24.3374,.9976,36.5856-5.2857,1.6102-9.2614,2.2576-11.8362-3.1791-5.8068,4.6207-12.3548,5.7569-19.3293,4.7479-7.6119-1.1012-12.8616-6.2457-13.472-12.9923-.6793-7.5089,2.5956-12.5531,10.6243-15.1106,3.4346-1.094,7.2401-1.1725,10.8967-1.3975,3.6195-.2227,7.2637-.0486,11.2388-.0486,1.3489-5.7554,.4443-9.8926-3.9736-12.7609-5.3698-3.4862-10.622-2.2545-21.3564,4.8094Zm25.2848,15.7612c-5.5645,.2522-11.0552,.0042-16.3124,.9901-2.0317,.381-4.4619,3.3106-5.0625,5.5227-.926,3.4105,1.7116,5.5641,4.9242,6.7263,7.5666,2.7372,15.3671-2.9469,16.4507-13.239Z"/>
      <path class="cls-1" d="M889.0406,120.7243c-4.4178-.9912-7.6232-1.7104-10.8286-2.4295,.0303-.5653,.0605-1.1305,.0908-1.6958-2.1678,1.0047-4.2462,2.3683-6.5242,2.9311-3.5454,.8759-7.2774,1.8974-10.8401,1.6365-9.4557-.6924-16.0872-7.01-16.2393-14.6486-.1484-7.4523,5.4242-13.4077,14.877-14.8718,5.9903-.9278,12.1413-.8259,18.5016-1.2025,.553-5.3279,.3104-9.9555-4.7066-12.2634-7.8484-3.6103-14.269,.1403-21.0386,5.9725-1.892-1.9657-3.5234-3.6607-4.9713-5.165,8.0178-12.7405,23.0371-15.9563,34.1242-8.2038,4.6005,3.2167,7.3402,7.6752,7.4707,13.1488,.2769,11.6168,.0845,23.2448,.0845,36.7915Zm-11.2292-20.6569c-5.843,0-11.0076-.301-16.1151,.1069-3.3478,.2674-5.7361,2.7515-5.6955,6.1592,.0398,3.3299,2.3168,5.4679,5.649,6.3536,7.7792,2.0677,14.6003-2.7731,16.1616-12.6197Z"/>
      <path class="cls-1" d="M598.7111,194.1368c1.262-5.7762,1.0448-10.2448-3.8364-12.8911-8.0162-4.346-14.1594,.1632-20.6113,5.22-1.9023-1.7957-3.7949-3.5821-5.6247-5.3093,7.1513-10.2631,18.6433-14.0543,29.3805-10.0797,7.3939,2.737,11.5312,8.0676,12.3754,15.8026,.3997,3.6622,.4036,7.3761,.4312,11.0678,.0594,7.9677,.0183,15.9362,.0183,23.6947q-7.4249,1.9309-10.2867-1.0603c-7.1469,1.183-13.3661,3.0529-19.5794,3.0337-8.265-.0255-14.5833-6.4656-15.0103-13.5857-.4164-6.942,4.4035-12.9747,12.5408-14.9872,3.2425-.8019,6.723-.7372,10.103-.8759,3.3169-.1361,6.6439-.0296,10.0997-.0296Zm.1621,7.8315c-4.6924,0-8.6578-.0546-12.6201,.0328-1.2083,.0267-2.7337,.0648-3.5467,.7576-1.9717,1.6802-4.6129,3.5077-5.1475,5.7166-.8027,3.3162,1.8905,5.5324,5.0284,6.7222,7.5741,2.8718,15.3198-2.8383,16.286-13.2293Z"/>
      <path class="cls-1" d="M410.2124,222.9178c-3.5687,.2709-7.6574,1.8473-8.4749-2.6705-6.3174,1.2811-12.1913,3.3445-18.1074,3.4722-9.403,.203-15.9392-6.1634-16.1677-14.2275-.2125-7.4995,5.6913-13.8171,14.6903-15.015,4.5522-.606,9.2321-.2191,13.8488-.4112,1.4699-.0611,2.9223-.5412,4.3227-.8178,1.3975-5.3563,.3816-9.6082-4.4186-12.1203-8.0543-4.215-14.0828,.542-21.1541,5.9158-1.7994-1.8959-3.6248-3.8192-5.3453-5.632,7.9006-10.3109,18.4506-14.1117,29.0744-10.7736,6.9462,2.1826,12.4568,6.6848,12.8604,14.1548,.6597,12.2119,.1649,24.4864,.0853,36.7341-.0029,.4497-.7621,.8944-1.2138,1.3909Zm-9.9344-21.2129c-6.0407,.4085-11.538,.2882-16.777,1.3881-1.9658,.4128-4.5706,3.6288-4.6234,5.626-.0533,2.0186,2.2903,4.7174,4.2999,6.0388,3.7254,2.4498,7.7696,1.0523,11.2502-1.062,3.715-2.2568,6.8171-5.1486,5.8503-11.9909Z"/>
      <path class="cls-1" d="M534.2517,120.3316c-4.1224-.1922-7.0576-.329-10.9263-.5093,0-6.3872,.0126-12.1565-.0039-17.9257-.0132-4.6091,.2021-9.2385-.1573-13.8221-.5169-6.5923-4.619-10.3765-10.6661-10.4046-5.9428-.0276-10.7218,3.7922-11.51,9.8391-.5129,3.9349-.2503,7.9745-.2697,11.9675-.0312,6.4243-.0084,12.8489-.0084,20.0457h-10.6178v-49.9042c4.867-3.2622,8.6473,1.372,12.6586,1.0375,4.1418-.3454,8.0755-3.2961,12.2084-3.5875,9.7293-.6859,18.4708,6.4309,19.1093,16.2362,.7728,11.8677,.1833,23.8234,.1833,37.0274Z"/>
      <path class="cls-1" d="M726.8302,110.1652c2.1409-1.4548,4.3707-2.9702,6.9105-4.6962,1.915,1.1403,3.8862,2.6322,6.0981,3.5471,2.5082,1.0375,5.196,1.986,7.87,2.2085,4.6238,.3848,9.3952-2.3368,8.6021-4.8836-.7735-2.4842-3.3167-4.857-5.6822-6.3138-3.6345-2.2383-7.8643-3.4911-11.6918-5.452-5.7323-2.9368-8.7075-7.5189-8.026-14.2056,.6909-6.7787,4.9418-10.2243,10.9462-12.1648,9.5075-3.0724,17.3487-.3682,24.5159,6.7091-1.8713,2.2717-3.3974,4.1242-4.941,5.9982-1.1637-.2151-2.0356-.3206-2.8771-.5413-4.0668-1.067-8.0811-2.4653-12.2138-3.0709-1.2584-.1844-3.8637,1.6424-4.0258,2.8013-.2454,1.7554,.6043,4.2672,1.9064,5.4827,1.7047,1.5912,4.2973,2.2457,6.5189,3.2801,3.0618,1.4257,6.2904,2.5713,9.1669,4.3001,5.1256,3.0806,7.9554,7.6064,7.2995,13.8124-.6934,6.5613-4.7626,10.508-10.5644,12.7903-10.0569,3.9564-20.7229,.7438-29.8123-9.6017Z"/>
      <path class="cls-1" d="M655.3852,181.9777c-3.0547-.6826-5.0731-1.1336-6.9774-1.5591q-1.5166-8.4874,6.3913-11.1826c.2738-3.367,.566-6.9606,.9226-11.3472h9.9639c.4575,4.0252,.8942,7.8669,1.3693,12.0473,4.8847,.4433,9.377,.851,14.454,1.3118v8.7302c-4.8274,.4148-9.3336,.802-14.9676,1.2861,0,8.6079-.4116,17.1317,.2752,25.5668,.1829,2.2456,3.3758,4.9818,5.8291,6.1208,2.9305,1.3606,6.5511,1.2474,10.5108,1.8734v7.3788c-.8753,.5606-1.3484,1.1018-1.8762,1.161-2.4422,.274-4.9021,.6012-7.3512,.5703-11.7133-.1479-17.7385-5.5356-18.4515-17.245-.484-7.9479-.0925-15.9487-.0925-24.7127Z"/>
      <path class="cls-1" d="M331.9682,182.1221c-2.9953-.8351-5.2556-1.4653-7.3982-2.0627q-.7911-8.13,6.7707-10.5282c.3599-3.6798,.7384-7.5506,1.1653-11.9154h9.7401c.4953,4.0366,.9668,7.8792,1.4995,12.22,4.6726,.4973,9.1425,.9731,13.9911,1.4892v8.6629c-4.7502,.4096-8.9918,.7753-14.4826,1.2488,0,8.5544-.1535,17.0575,.0752,25.5504,.0921,3.4207,2.4259,5.6211,5.801,6.3325,3.2699,.6892,6.5934,1.1262,10.3748,1.7538v8.2816c-3.2336,.3047-5.9436,.7786-8.6535,.7779-12.1983-.0032-18.3818-5.7695-18.8303-17.8678-.2848-7.6837-.0532-15.3863-.0532-23.9429Z"/>
      <path class="cls-1" d="M809.4617,55.6827h10.1081c.3182,4.1147,.5966,7.7147,.9555,12.3547,4.4789,.2582,8.9404,.5153,14.1733,.817,.1534,2.8484,.2896,5.379,.4539,8.4321-5.1665,.5311-9.6313,.9901-14.9506,1.537,0,8.6257-.1467,16.8538,.0603,25.073,.1076,4.2715,2.7684,6.7821,7.0208,7.1908,2.7308,.2625,5.5077,.0493,9.258,.0493,.1405,3.1572,.2663,5.9876,.3823,8.5943-17.1395,5.6302-27.6503-1.665-27.8668-18.5942-.0903-7.0615-.015-14.1251-.015-21.1817-3.0022-1.4564-6.0701-2.2525-8.026-4.1721-1.0492-1.0297-.1864-3.991-.1864-6.4221,2.7783-.6118,5.0689-1.1162,7.8201-1.7221,.2565-3.7754,.501-7.3745,.8122-11.956Z"/>
      <path class="cls-1" d="M372.4271,109.9958v9.4702h-41.7964V50.4671h10.3546v59.5287h31.4418Z"/>
      <path class="cls-1" d="M626.407,144.154h9.363c2.1779,6.5408,2.7342,66.4659,.6669,78.4246h-10.0299v-78.4246Z"/>
      <path class="cls-1" d="M582.4134,68.314c5.1125,11.1899,9.9361,21.7476,15.5215,33.9725,5.441-12.1576,10.1469-22.6725,14.968-33.4448h11.3916c-8.0765,18.231-16.3092,35.6867-25.9683,54.9283-11.0761-18.6496-18.0212-36.6355-27.4525-54.8486,4.1772-.2199,7.3277-.3857,11.5397-.6075Z"/>
      <path class="cls-1" d="M721.7247,69.1061v8.013c-1.4148,.4133-2.5299,.7954-3.672,1.0639-11.9901,2.8188-14.6642,6.1117-14.7932,18.4053-.071,6.7604-.0554,13.5216-.1109,20.2822-.0048,.5916-.2486,1.1813-.5479,2.5125h-9.8382v-49.49q7.5694-2.1166,11.2773,3.1395c5.172-2.975,10.3978-6.4661,17.6849-3.9265Z"/>
      <path class="cls-1" d="M779.9884,119.5062v-50.6085c3.0258-.148,6.1755-.3021,10.5739-.5172,.425,17.2713,.1804,33.8854,.1613,51.1257h-10.7352Z"/>
      <path class="cls-1" d="M560.3691,68.8051v50.8476c-3.4115,.1742-6.3734,.3255-9.2127,.4705-2.0397-7.0162-2.4163-39.7129-.6438-51.1258,1.2968-.1773,2.7473-.4964,4.2065-.5418,1.5089-.047,3.026,.1718,5.6499,.3496Z"/>
      <path class="cls-1" d="M428.7148,180.6412v-26.7333h12.0777c-1.1919,7.8713-2.2902,15.6243-3.5631,23.3488-.7954,4.8268-4.1947,4.4688-8.5146,3.3846Z"/>
      <path class="cls-1" d="M377.3235,81.8757h25.4019c.2359,2.7407,.4533,5.2669,.7267,8.4433h-25.5923c-.1523-2.3974-.311-4.8964-.5364-8.4433Z"/>
      <path class="cls-1" d="M872.3231,59.772c-8.3553,.9575-13.5793-4.0399-18.3662-16.8247,1.5439-.2131,3.0145-.5726,4.4878-.5838,2.3985-.0182,4.7989,.1913,7.7644,.3314,2.0572,5.7458,4.0528,11.3199,6.114,17.0771Z"/>
      <path class="cls-1" d="M792.7264,49.2033c-.2198,3.9129-3.2412,6.507-7.4493,6.3956-4.3933-.1163-7.865-3.6114-7.4675-7.518,.3476-3.417,4.1551-6.7904,7.6044-6.7375,4.0019,.0613,7.537,3.8611,7.3123,7.8599Z"/>
      <path class="cls-1" d="M562.5701,49.1122c-.1921,3.8831-3.2343,6.5413-7.4304,6.4927-4.4758-.0519-7.8228-3.3902-7.4873-7.468,.296-3.5971,3.8507-6.8257,7.4831-6.7966,4.0454,.0324,7.632,3.7817,7.4346,7.772Z"/>
      <path class="cls-1" d="M133.0271,114.7199c14.8338,.1779,29.6671,.4223,44.5014,.5148,14.5401,.0906,29.0852,.2243,43.6195-.0756,5.1557-.1064,8.1185,1.4418,9.4565,6.5182,.6942,2.6335,1.8416,5.4156,3.5797,7.4602,5.6294,6.622,8.2518,13.2249,3.2997,21.6058-1.0148,1.7173,.5829,5.2623,1.5074,7.7708,6.3878,17.3336,7.2456,34.7777,1.879,52.5529-4.6335,15.3469-24.8279,29.7263-40.2643,25.8899-15.0157-3.7318-28.0186-1.0922-40.9021,5.8598-8.6371,4.6606-17.1762,9.5011-26.2871,14.5539-.2562-1.5202-.7961-3.416-.8537-5.3261-.139-4.6168,.0015-9.2412-.0678-13.8611-.1945-12.9637-6.483-18.6577-19.6928-17.4026-3.9488,.3752-7.7988,1.7929-11.691,2.7456-9.5954,2.3489-19.1101,5.1401-28.8149,6.8843-5.2431,.9423-10.8096,.1008-16.7001,.0609v-87.8396c.6078-.5001,1.0724-1.2174,1.5482-1.2249,12.3296-.194,23.9105-3.7141,34.6795-9.1754,12.0916-6.1321,23.6656-5.8852,35.5426-.136,1.351,.654,2.7982,1.1108,5.1118,2.0151,.2877-6.9865,.5476-13.2985,.8075-19.6106l-.2593,.2197ZM62.0114,224.5453c2.9954,0,4.8687,.3108,6.6-.0513,9.9487-2.081,19.9866-3.8881,29.7558-6.6302,9.7216-2.7288,19.2425-4.3179,29.0883-1.0717,.397,.1309,1.0153-.4034,2.2091-.9234,0-23.6493,.0657-47.5981-.1372-71.5447-.0146-1.7295-1.5731-4.1449-3.1171-5.0447-7.7297-4.5044-16.1787-6.6336-24.8795-3.6602-13.0331,4.4539-25.8518,9.5299-39.5195,14.6237v74.3025Zm137.9143,.0578c-.2804-27.4397,.4192-52.7057-.4245-77.841-12.7262-1.5859-23.5632-5.0742-33.6212-10.6198-8.4125-4.6383-16.4451-3.8744-24.7589,.0492-4.6552,2.197-6.8679,5.0512-6.779,10.6117,.3441,21.5186,.117,43.046,.1829,64.5698,.006,1.9734,.5828,3.9452,.9928,6.5397,10.145-5.3209,19.6719-4.1537,29.3002-.5955,4.3239,1.5979,8.8306,2.8322,13.354,3.7382,6.5641,1.3146,13.2185,2.1823,21.7536,3.5476Z"/>
      <path class="cls-1" d="M85.359,42.4329v-15.5287c13.7014-11.856,28.9566-11.4118,45.4007-7.0602,2.0151,6.7576,.953,14.0275,.9302,21.2863-1.0363,.5127-1.8329,1.2481-2.6331,1.252-14.187,.0698-28.3745,.0506-43.6978,.0506Z"/>
      <path class="cls-1" d="M133.2864,114.5002c-3.3811,.2402-6.7617,.6807-10.1433,.6886-25.3491,.0588-50.6984,.0414-76.0476,.0195-2.8714-.0025-5.7427-.1811-8.614-.278,.0296-.6825,.0592-1.365,.0888-2.0475h93.121c.3837-6.4973,.7194-12.1815,1.0891-18.4416h44.8406c2.2409,5.8311,1.5654,11.6993,.0509,18.3254-12.1843,0-24.2097-.1202-36.2293,.089-2.8152,.049-5.6109,1.2132-8.4156,1.8643l.2593-.2197Z"/>
      <path class="cls-1" d="M178.3575,68.8373v14.9778h-45.4256v-14.9778h45.4256Z"/>
      <path class="cls-1" d="M131.4943,52.6989v15.1256h-45.9935v-15.1256h45.9935Z"/>
      <path class="cls-1" d="M189.3748,93.3112h34.8961c.7194,6.095,1.4176,12.0098,2.2074,18.7012h-37.1035v-18.7012Z"/>
      <path class="cls-1" d="M37.358,68.2991c-3.0557-5.325-5.779-10.0706-9.3606-16.3121,16.1688-.0122,31.2344-.0568,46.9957,.0504v16.0888c-12.421,.4943-25.1428,.1707-37.6351,.1729Z"/>
      <path class="cls-1" d="M189.4032,68.7535h37.9301c-.8271,4.999-1.5936,9.6316-2.529,15.285-11.6219,1.0067-23.1305,.2381-35.4011,.4546v-15.7396Z"/>
      <path class="cls-1" d="M75.6112,29.747v11.4051c-6.6128,1.8304-38.3637,2.2897-51.275,.6795,2.8135-4.294,5.4176-8.2685,8.3059-12.6767,14.2037,5.627,28.0918,5.3445,42.9691,.5922Z"/>
      <path class="cls-1" d="M72.4254,84.5483c8.2981,6.7935,9.5569,6.7925,16.0082-.279,2.7621,3.8829,1.1814,7.1208-1.429,9.8181-2.8986,2.995-6.7908,3.115-10.3089,1.3937-4.4822-2.1931-5.6913-6.0716-4.2702-10.9327Z"/>
      <path class="cls-1" d="M176.3782,41.3355c6.2276,7.7983,8.0154,7.8857,15.6416,.6937,1.4058,4.3858,.8899,7.9742-2.826,10.5175-3.3426,2.2877-7.1512,2.325-10.4399,.0385-3.603-2.5051-5.2527-5.9664-2.3757-11.2497Z"/>
      <path class="cls-1" d="M147.3967,55.4183c4.1477,3.573,8.197,5.4973,11.4481-.8536,3.0723,3.0733,2.0765,5.4501,.0483,7.5393-2.3886,2.4604-5.3948,2.8915-8.4403,1.36-2.9993-1.5082-4.6955-3.7736-3.0561-8.0457Z"/>
      <path class="cls-1" d="M118.7321,94.4044c.1008,7.1467-1.2155,9.1708-5.3262,9.602-4.5106,.4732-6.4399-1.4123-8.0688-8.985,4.7858,3.564,9.2426,5.1199,13.395-.617Z"/>
      <path class="cls-1" d="M221.6939,34.806c.2383,7.7305-.9976,9.5531-5.5472,9.7519-4.6566,.2034-6.2646-1.5051-7.4471-8.9144,4.8228,3.6392,9.3857,5.5741,12.9943-.8375Z"/>
      <path class="cls-1" d="M146.3626,26.3139c5.3759,5.0426,9.3828,6.0601,12.7518,.2472,1.4747,5.9317,.3673,8.4934-3.525,9.5901-4.2473,1.1968-7.1295-1.2459-9.2268-9.8373Z"/>
      <path class="cls-1" d="M209.3167,55.2394q6.1223,4.5404,12.4353-.4008c1.4062,3.1811,1.219,5.8324-1.5325,7.9144-2.7467,2.0784-5.8106,2.071-8.6375,.2126-2.8007-1.8411-4.3502-4.2733-2.2654-7.7262Z"/>
      <path class="cls-1" d="M118.6831,75.231c.4536,6.2654-1.38,9.081-5.6844,9.3859-4.0994,.2905-6.2596-2.0926-7.4941-8.7041,2.4225,1.1949,4.5988,3.1028,6.7597,3.0856,1.9305-.0153,3.844-2.1556,6.4188-3.7675Z"/>
      <path class="cls-1" d="M44.002,94.0041c4.5969,5.9547,8.5056,4.9821,12.473,.9686-.0622,7.2772-.9715,8.6883-5.2708,9.0119-4.5746,.3443-6.305-1.581-7.2022-9.9805Z"/>
      <path class="cls-1" d="M57.022,75.122c-.8851,7.4911-2.9447,9.8971-7.1489,9.4435-3.9091-.4218-5.3446-2.6278-5.4713-8.4084q6.0955,3.9977,12.6202-1.035Z"/>
    </g>
  </g>
</svg>